<?xml version="1.0" encoding="UTF-8" standalone="no"?>
<!-- Created with Inkscape (http://www.inkscape.org/) -->

<svg
   xmlns:dc="http://purl.org/dc/elements/1.1/"
   xmlns:cc="http://creativecommons.org/ns#"
   xmlns:rdf="http://www.w3.org/1999/02/22-rdf-syntax-ns#"
   xmlns:svg="http://www.w3.org/2000/svg"
   xmlns="http://www.w3.org/2000/svg"
   xmlns:sodipodi="http://sodipodi.sourceforge.net/DTD/sodipodi-0.dtd"
   xmlns:inkscape="http://www.inkscape.org/namespaces/inkscape"
   width="165.08829mm"
   height="110.56589mm"
   viewBox="0 0 165.08829 110.56589"
   version="1.1"
   id="svg8"
   inkscape:version="0.92.4 (5da689c313, 2019-01-14)"
   sodipodi:docname="cat.svg">
  <defs
     id="defs2" />
  <sodipodi:namedview
     id="base"
     pagecolor="#ffffff"
     bordercolor="#666666"
     borderopacity="1.0"
     inkscape:pageopacity="0.0"
     inkscape:pageshadow="2"
     inkscape:zoom="0.98994949"
     inkscape:cx="201.39565"
     inkscape:cy="230.191"
     inkscape:document-units="mm"
     inkscape:current-layer="flowRoot849"
     showgrid="false"
     inkscape:window-width="1920"
     inkscape:window-height="1013"
     inkscape:window-x="-9"
     inkscape:window-y="-9"
     inkscape:window-maximized="1"
     inkscape:snap-grids="true" />
  <metadata
     id="metadata5">
    <rdf:RDF>
      <cc:Work
         rdf:about="">
        <dc:format>image/svg+xml</dc:format>
        <dc:type
           rdf:resource="http://purl.org/dc/dcmitype/StillImage" />
        <dc:title />
      </cc:Work>
    </rdf:RDF>
  </metadata>
  <g
     inkscape:label="Layer 1"
     inkscape:groupmode="layer"
     id="layer1"
     transform="translate(-60.652363,-43.327008)">
    <g
       id="g4997"
       transform="translate(-9.4494048,2.2678571)">
      <path
         sodipodi:nodetypes="ccccc"
         inkscape:connector-curvature="0"
         id="path4785"
         d="m 95.281585,96.443861 -7.42263,11.109049 38.060195,0.0486 -8.72146,-11.053696 z"
         style="fill:#8a8886;fill-opacity:1;stroke:#3b3a39;stroke-width:1.76499999;stroke-linecap:round;stroke-linejoin:miter;stroke-miterlimit:4;stroke-dasharray:none;stroke-opacity:1" />
      <path
         inkscape:connector-curvature="0"
         id="path4783"
         d="m 71.034472,107.81396 c 0.719045,0 163.222878,-0.32362 163.222878,-0.32362"
         style="fill:none;stroke:#3b3a39;stroke-width:1.83921349;stroke-linecap:round;stroke-linejoin:miter;stroke-miterlimit:4;stroke-dasharray:none;stroke-opacity:1" />
      <g
         transform="translate(167.31072,-2.6726953)"
         id="g4762">
        <path
           style="fill:#8a8886;fill-opacity:1;stroke:#3b3a39;stroke-width:1.76499999;stroke-linecap:butt;stroke-linejoin:miter;stroke-miterlimit:4;stroke-dasharray:none;stroke-opacity:1"
           d="m -85.526249,67.549109 c -2.140193,-7.689018 -1.462977,-15.737305 4.543583,-22.717909 5.116423,2.587767 9.182482,5.875778 12.160764,9.888973 -6.964135,2.281998 -12.226778,6.9947 -16.704347,12.828936 z"
           id="path4539"
           inkscape:connector-curvature="0"
           sodipodi:nodetypes="cccc" />
        <path
           style="fill:#8a8886;fill-opacity:1;stroke:#3b3a39;stroke-width:1.76499999;stroke-linecap:butt;stroke-linejoin:miter;stroke-miterlimit:4;stroke-dasharray:none;stroke-opacity:1"
           d="m -37.220804,68.331681 c 2.140192,-7.689018 1.462976,-15.737305 -4.543583,-22.717909 -5.116424,2.587767 -9.182483,5.875778 -12.160765,9.888973 6.964135,2.281998 12.226778,6.9947 16.704348,12.828936 z"
           id="path4539-0"
           inkscape:connector-curvature="0"
           sodipodi:nodetypes="cccc" />
        <ellipse
           style="fill:none;fill-opacity:1;stroke-width:0.26458332"
           id="path23"
           cx="-61.471989"
           cy="78.17308"
           rx="28.063299"
           ry="24.521978" />
        <path
           style="fill:#fed9cc;fill-opacity:1;stroke:none;stroke-width:1;stroke-linecap:butt;stroke-linejoin:miter;stroke-miterlimit:4;stroke-dasharray:none;stroke-opacity:1"
           d="m -80.55565,61.91188 c -0.758946,-2.869401 -0.518795,-5.872874 1.611229,-8.477909 1.814367,0.965708 3.256257,2.192734 4.312404,3.690385 -2.469595,0.8516 -4.335814,2.610294 -5.923633,4.787524 z"
           id="path4539-0-6-6"
           inkscape:connector-curvature="0"
           sodipodi:nodetypes="cccc" />
        <path
           style="fill:#fed9cc;fill-opacity:1;stroke:none;stroke-width:1;stroke-linecap:butt;stroke-linejoin:miter;stroke-miterlimit:4;stroke-dasharray:none;stroke-opacity:1"
           d="m -41.835039,61.80912 c 0.758946,-2.869401 0.518795,-5.872874 -1.611229,-8.477908 -1.814367,0.965707 -3.256257,2.192733 -4.312404,3.690384 2.469595,0.8516 4.335814,2.610294 5.923633,4.787524 z"
           id="path4539-0-6"
           inkscape:connector-curvature="0"
           sodipodi:nodetypes="cccc" />
        <path
           style="fill:#8a8886;fill-opacity:1;stroke:#3b3a39;stroke-width:1.76499999;stroke-linecap:butt;stroke-linejoin:miter;stroke-miterlimit:4;stroke-dasharray:none;stroke-opacity:1"
           d="m -61.564824,53.97752 c -14.09364,1.035376 -23.99561,7.689373 -26.26934,24.568454 -1.22981,14.233756 7.72057,22.141786 26.55283,22.017106 20.25007,-0.64372 26.985036,-8.892266 26.363834,-21.355648 -2.000524,-15.917514 -10.787804,-24.4313 -26.647324,-25.229912 z"
           id="path4537"
           inkscape:connector-curvature="0"
           sodipodi:nodetypes="ccccc" />
        <path
           style="opacity:1;fill:#96f2fd;fill-opacity:1;stroke:none;stroke-width:0.25253814;stroke-linecap:round;stroke-miterlimit:4;stroke-dasharray:none;stroke-opacity:1"
           d="m -68.96257,99.394333 0.460235,0.203241 -0.09323,-2.418544 c 0.02223,-0.9627 0.05922,-5.561466 0.08221,-10.219472 l 0.0418,-8.469103 h -4.543362 -4.543362 l -0.04204,6.397765 c -0.02312,3.518771 -0.04933,7.641196 -0.05825,9.16095 l -0.0162,2.76319 1.679868,0.72338 c 2.939544,1.26582 3.478987,1.632101 5.503001,1.665141 0.556185,-0.01455 1.043861,0.02091 1.529325,0.193452 z"
           id="path4698-5"
           inkscape:connector-curvature="0"
           sodipodi:nodetypes="cccscccsccscc" />
        <path
           style="fill:none;stroke:#3b3a39;stroke-width:1.76499999;stroke-linecap:round;stroke-linejoin:miter;stroke-miterlimit:4;stroke-dasharray:none;stroke-opacity:1"
           d="m -91.005274,82.917108 7.216278,1.069078"
           id="path4586"
           inkscape:connector-curvature="0" />
        <path
           style="fill:none;stroke:#3b3a39;stroke-width:1.76499999;stroke-linecap:round;stroke-linejoin:miter;stroke-miterlimit:4;stroke-dasharray:none;stroke-opacity:1"
           d="m -31.537804,82.917108 -7.216278,1.069078"
           id="path4586-2"
           inkscape:connector-curvature="0" />
        <path
           style="fill:none;stroke:#3b3a39;stroke-width:1.76499999;stroke-linecap:round;stroke-linejoin:miter;stroke-miterlimit:4;stroke-dasharray:none;stroke-opacity:1"
           d="m -31.671438,89.197942 -7.216279,-1.069078"
           id="path4586-2-7"
           inkscape:connector-curvature="0" />
        <path
           style="fill:none;stroke:#3b3a39;stroke-width:1.76499999;stroke-linecap:round;stroke-linejoin:miter;stroke-miterlimit:4;stroke-dasharray:none;stroke-opacity:1"
           d="m -83.254458,87.861595 -7.216278,1.069078"
           id="path4586-2-4"
           inkscape:connector-curvature="0" />
        <path
           style="opacity:1;fill:#96f2fd;fill-opacity:1;stroke:none;stroke-width:0.25253814;stroke-linecap:round;stroke-miterlimit:4;stroke-dasharray:none;stroke-opacity:1"
           d="m -53.464003,98.826067 -0.243091,-0.0303 -0.04041,-1.75037 c -0.02223,-0.9627 -0.05922,-5.561466 -0.08221,-10.219472 l -0.0418,-8.469103 h 4.543362 4.543362 l 0.04204,6.397765 c 0.02312,3.518771 0.04933,7.641196 0.05825,9.16095 l 0.0162,2.76319 -1.679868,0.72338 c -2.939543,1.26582 -3.445577,1.39824 -5.469591,1.43128 -0.771741,0.0126 -1.512556,0.009 -1.646256,-0.007 z"
           id="path4698"
           inkscape:connector-curvature="0" />
        <path
           style="fill:none;stroke:#3b3a39;stroke-width:1.7651;stroke-linecap:round;stroke-linejoin:miter;stroke-miterlimit:4;stroke-dasharray:none;stroke-opacity:1"
           d="m -54.522983,78.373526 h 10.423511"
           id="path4639-8"
           inkscape:connector-curvature="0" />
        <path
           style="fill:#fed9cc;fill-opacity:1;stroke:#3b3a39;stroke-width:1.75600004;stroke-linecap:round;stroke-linejoin:miter;stroke-miterlimit:4;stroke-dasharray:none;stroke-opacity:1"
           d="m -64.710955,85.298909 c 0.02179,-1.248396 1.712913,-1.677904 3.372599,-1.713627 1.776914,0.03426 3.443658,0.523424 3.474503,1.752766 0.05745,1.727037 -2.516028,3.254974 -3.498821,3.215343 -1.007023,-0.03809 -3.396649,-1.809226 -3.348281,-3.254482 z"
           id="path4656"
           inkscape:connector-curvature="0"
           sodipodi:nodetypes="ccccc" />
        <path
           style="fill:none;stroke:#3b3a39;stroke-width:1.7651;stroke-linecap:round;stroke-linejoin:miter;stroke-miterlimit:4;stroke-dasharray:none;stroke-opacity:1"
           d="m -78.0427,78.373525 h 10.423511"
           id="path4639"
           inkscape:connector-curvature="0" />
        <path
           style="fill:none;fill-opacity:1;stroke:#3b3a39;stroke-width:1.76499999;stroke-linecap:butt;stroke-linejoin:miter;stroke-miterlimit:4;stroke-dasharray:none;stroke-opacity:1"
           d="m -61.564825,53.97752 c -14.09364,1.035376 -23.995615,7.689373 -26.269345,24.568454 -1.22981,14.23376 7.720574,22.141786 26.552835,22.017106 20.250071,-0.643716 26.985037,-8.892266 26.363835,-21.355648 -2.000525,-15.917514 -10.787806,-24.4313 -26.647325,-25.229912 z"
           id="path4537-4"
           inkscape:connector-curvature="0"
           sodipodi:nodetypes="ccccc" />
      </g>
      <ellipse
         cx="90.525604"
         cy="109.27821"
         rx="5.863225"
         ry="8.4691029"
         id="path4766"
         style="opacity:1;fill:#8a8886;fill-opacity:1;stroke:#3b3a39;stroke-width:1.75599992;stroke-linecap:round;stroke-miterlimit:4;stroke-dasharray:none;stroke-opacity:1" />
      <ellipse
         cx="122.80363"
         cy="109.07824"
         rx="5.863225"
         ry="8.4691029"
         id="path4766-6"
         style="opacity:1;fill:#8a8886;fill-opacity:1;stroke:#3b3a39;stroke-width:1.75600004;stroke-linecap:round;stroke-miterlimit:4;stroke-dasharray:none;stroke-opacity:1" />
      <g
         id="g5026"
         transform="translate(-12.85119,2.6458333)">
        <path
           style="fill:#ffffff;fill-opacity:1;stroke:#3a3a39;stroke-width:1.76499999;stroke-linecap:round;stroke-linejoin:round;stroke-miterlimit:4;stroke-dasharray:none;stroke-opacity:0.97512434"
           d="m 139.6835,135.91535 c 0,0 -9.19843,-0.12611 -9.44261,4.46031 0.98438,13.99321 15.71067,4.67097 24.20178,4.74243 5.49893,-0.006 20.54567,6.18173 21.29733,-1.69974 1.58958,-12.74683 -5.89264,-5.32875 -10.11499,-10.94796 -2.25176,-2.78922 -7.56292,-2.54414 -7.56292,-2.54414 -6.1262,1.99637 -8.74425,5.40857 -18.37859,5.9891 z"
           id="path4820"
           inkscape:connector-curvature="0"
           sodipodi:nodetypes="ccccccc" />
        <path
           style="fill:#b7472a;fill-opacity:1;stroke:#3b3a39;stroke-width:1.76499999;stroke-linecap:round;stroke-linejoin:round;stroke-miterlimit:4;stroke-dasharray:none;stroke-opacity:1"
           d="m 113.26905,125.14463 -1.3668,10.02783 c 12.30618,2.45517 24.96771,2.33407 37.98661,-0.37797 l -2.1226,-9.92763 z"
           id="path4789"
           inkscape:connector-curvature="0"
           sodipodi:nodetypes="ccccc" />
        <path
           style="opacity:1;fill:#ffffff;fill-opacity:1;stroke:#3b3a39;stroke-width:1.76499999;stroke-linecap:round;stroke-miterlimit:4;stroke-dasharray:none;stroke-opacity:1"
           id="path4787"
           sodipodi:type="arc"
           sodipodi:cx="130.51758"
           sodipodi:cy="125.0616"
           sodipodi:rx="17.29241"
           sodipodi:ry="2.7403271"
           sodipodi:start="0"
           sodipodi:end="6.2120631"
           sodipodi:open="true"
           d="m 147.80999,125.0616 a 17.29241,2.7403271 0 0 1 -16.98496,2.73989 17.29241,2.7403271 0 0 1 -17.58893,-2.64246 17.29241,2.7403271 0 0 1 16.35951,-2.83386 17.29241,2.7403271 0 0 1 18.17066,2.5417" />
        <path
           style="fill:#ffffff;fill-opacity:1;stroke:#393938;stroke-width:1;stroke-linecap:round;stroke-linejoin:round;stroke-miterlimit:4;stroke-dasharray:none;stroke-opacity:0.98507463"
           d="m 137.11927,127.31217 c 0,0 -0.68086,3.8035 0.25558,5.30656 0.5959,0.95647 1.87362,1.93594 2.95942,1.63436 1.37109,-0.38083 2.13735,-3.69541 2.13735,-3.69541 0,0 0.56468,6.21293 2.7265,7.41869 5.68834,3.17268 0.2653,-9.38755 -0.09,-11.75568 z"
           id="path4822"
           inkscape:connector-curvature="0"
           sodipodi:nodetypes="csscscc" />
      </g>
      <flowRoot
         xml:space="preserve"
         id="flowRoot841"
         style="font-style:normal;font-weight:normal;font-size:40px;line-height:1.25;font-family:sans-serif;letter-spacing:0px;word-spacing:0px;fill:#000000;fill-opacity:1;stroke:none"
         transform="matrix(1.8730699,0,0,2.157472,278.35032,-122.17585)"><flowRegion
           id="flowRegion843"><rect
             id="rect845"
             width="152.53304"
             height="108.5914"
             x="-174.25131"
             y="69.889267" /></flowRegion><flowPara
           id="flowPara847"
           style="font-style:normal;font-variant:normal;font-weight:600;font-stretch:normal;font-family:'Segoe UI';-inkscape-font-specification:'Segoe UI Semi-Bold';text-align:center;text-anchor:middle" /></flowRoot>      <g
         aria-label="404"
         transform="matrix(0.76471851,0,0,0.83266935,-158.24202,-40.521955)"
         style="font-style:normal;font-weight:normal;font-size:40px;line-height:1.25;font-family:sans-serif;letter-spacing:0px;word-spacing:0px;fill:#8a8886;fill-opacity:1;stroke:#3b3a39;stroke-width:2.20058131;stroke-linecap:round;stroke-linejoin:round;stroke-miterlimit:4;stroke-dasharray:none;stroke-opacity:1"
         id="flowRoot849">
        <path
           d="m 427.74146,163.16237 h -6.31019 v 10.78639 h -11.40809 v -10.78639 h -22.41207 v -8.76588 l 21.66604,-26.85718 h 12.15412 v 27.16802 h 6.31019 z m -17.71828,-8.45504 v -16.72356 l -13.45967,16.72356 z"
           style="font-style:normal;font-variant:normal;font-weight:bold;font-stretch:normal;font-size:63.66146469px;font-family:sans-serif;-inkscape-font-specification:'sans-serif Bold';letter-spacing:-2.61608863px;fill:#8a8886;fill-opacity:1;stroke:#3b3a39;stroke-width:2.20058131;stroke-linecap:round;stroke-linejoin:round;stroke-miterlimit:4;stroke-dasharray:none;stroke-opacity:1"
           id="path905"
           inkscape:connector-curvature="0" />
        <path
           d="m 469.42107,150.66632 q 0,5.84393 -1.05688,10.47555 -1.05688,4.60053 -3.29498,7.55358 -2.30027,3.01522 -5.90609,4.56945 -3.60583,1.52315 -8.89022,1.52315 -5.19115,0 -8.85914,-1.55423 -3.668,-1.55424 -5.93718,-4.60054 -2.30027,-3.0463 -3.32606,-7.55358 -1.0258,-4.53837 -1.0258,-10.38229 0,-6.03043 1.05688,-10.47555 1.05688,-4.44511 3.35715,-7.52249 2.30027,-3.0463 5.96826,-4.56945 3.66799,-1.52315 8.76589,-1.52315 5.31548,0 8.9213,1.58532 3.60583,1.55423 5.9061,4.6627 2.26918,3.0463 3.29498,7.5225 1.02579,4.44511 1.02579,10.28903 z m -12.02978,0 q 0,-8.39287 -1.64749,-11.93652 -1.64749,-3.57474 -5.4709,-3.57474 -3.82342,0 -5.47091,3.57474 -1.64749,3.54365 -1.64749,11.99869 0,8.23745 1.67857,11.87436 1.67858,3.63691 5.43983,3.63691 3.76124,0 5.43982,-3.63691 1.67857,-3.63691 1.67857,-11.93653 z"
           style="font-style:normal;font-variant:normal;font-weight:bold;font-stretch:normal;font-size:63.66146469px;font-family:sans-serif;-inkscape-font-specification:'sans-serif Bold';letter-spacing:-2.61608863px;fill:#8a8886;fill-opacity:1;stroke:#3b3a39;stroke-width:2.20058131;stroke-linecap:round;stroke-linejoin:round;stroke-miterlimit:4;stroke-dasharray:none;stroke-opacity:1"
           id="path907"
           inkscape:connector-curvature="0" />
        <path
           d="m 513.02793,163.16237 h -6.31019 v 10.78639 h -11.40809 v -10.78639 h -22.41207 v -8.76588 l 21.66604,-26.85718 h 12.15412 v 27.16802 h 6.31019 z m -17.71828,-8.45504 v -16.72356 l -13.45967,16.72356 z"
           style="font-style:normal;font-variant:normal;font-weight:bold;font-stretch:normal;font-size:63.66146469px;font-family:sans-serif;-inkscape-font-specification:'sans-serif Bold';letter-spacing:-2.61608863px;fill:#8a8886;fill-opacity:1;stroke:#3b3a39;stroke-width:2.20058131;stroke-linecap:round;stroke-linejoin:round;stroke-miterlimit:4;stroke-dasharray:none;stroke-opacity:1"
           id="path909"
           inkscape:connector-curvature="0" />
      </g>
    </g>
  </g>
</svg>
