<?xml version="1.0" encoding="UTF-8"?>
<svg id="Vrstva_1" data-name="Vrstva 1" xmlns="http://www.w3.org/2000/svg" xmlns:xlink="http://www.w3.org/1999/xlink" viewBox="0 0 109 53">
  <defs>
    <style>
      .cls-1 {
        fill: #fff;
      }

      .cls-2 {
        fill: #ff6844;
      }

      .cls-3 {
        fill: url(#Nepojmenovaný_přechod_355);
      }
    </style>
    <linearGradient id="Nepojmenovaný_přechod_355" data-name="Nepojmenovaný přechod 355" x1="47.15" y1="26.22" x2="88.73" y2="26.22" gradientTransform="matrix(1, 0, 0, 1, 0, 0)" gradientUnits="userSpaceOnUse">
      <stop offset="0" stop-color="#ff6844"/>
      <stop offset=".15" stop-color="#e6646c"/>
      <stop offset=".34" stop-color="#cc6097"/>
      <stop offset=".53" stop-color="#b85db9"/>
      <stop offset=".71" stop-color="#a95ad2"/>
      <stop offset=".87" stop-color="#a159e0"/>
      <stop offset="1" stop-color="#9e59e6"/>
    </linearGradient>
  </defs>
  <rect class="cls-1" x=".65" y=".36" width="108" height="51.92" rx="3" ry="3"/>
  <g>
    <g>
      <path class="cls-3" d="M47.29,23.86v-2.97c.54,.45,1.12,.79,1.75,1.02,.63,.23,1.27,.34,1.91,.34,.38,0,.71-.03,.99-.1,.28-.07,.52-.16,.71-.28,.19-.12,.33-.26,.42-.43,.09-.16,.14-.34,.14-.53,0-.26-.07-.49-.22-.7s-.35-.39-.61-.57c-.26-.17-.56-.34-.91-.5-.35-.16-.73-.32-1.14-.49-1.04-.43-1.81-.96-2.32-1.59-.51-.62-.77-1.38-.77-2.26,0-.69,.14-1.29,.42-1.79,.28-.5,.66-.91,1.14-1.23,.48-.32,1.03-.56,1.67-.71,.63-.15,1.3-.23,2-.23s1.31,.04,1.84,.12c.54,.08,1.03,.21,1.48,.39v2.77c-.22-.15-.47-.29-.73-.41-.26-.12-.53-.21-.81-.29-.28-.08-.56-.13-.83-.17-.27-.04-.54-.06-.78-.06-.34,0-.65,.03-.93,.1-.28,.06-.51,.16-.71,.27-.19,.12-.34,.26-.45,.42-.11,.16-.16,.35-.16,.55,0,.22,.06,.42,.18,.6,.12,.18,.28,.34,.5,.5,.22,.16,.48,.31,.79,.46,.31,.15,.66,.31,1.05,.47,.53,.22,1.01,.46,1.43,.71,.42,.25,.79,.53,1.09,.85,.3,.32,.53,.68,.7,1.08,.16,.4,.24,.88,.24,1.41,0,.74-.14,1.37-.42,1.87-.28,.5-.66,.91-1.15,1.22-.48,.31-1.04,.54-1.68,.67-.64,.14-1.32,.2-2.03,.2s-1.42-.06-2.08-.19c-.66-.12-1.23-.31-1.71-.56Z"/>
      <path class="cls-3" d="M67.89,13.5h-3.79v10.86h-3.01V13.5h-3.78v-2.44h10.58v2.44Z"/>
      <path class="cls-3" d="M78.55,23.89c-.97,.47-2.24,.71-3.8,.71-2.04,0-3.65-.6-4.82-1.8-1.17-1.2-1.75-2.8-1.75-4.8,0-2.13,.66-3.85,1.97-5.18,1.31-1.32,3.02-1.99,5.12-1.99,1.3,0,2.39,.16,3.28,.49v2.89c-.89-.53-1.91-.8-3.04-.8-1.25,0-2.26,.39-3.02,1.18-.77,.79-1.15,1.85-1.15,3.19s.36,2.31,1.08,3.08c.72,.76,1.7,1.15,2.92,1.15s2.24-.28,3.21-.85v2.74Z"/>
      <path class="cls-3" d="M50.36,38.94h5.64v2.43h-8.85v-1c0-.68,.11-1.29,.34-1.83,.23-.54,.52-1.03,.86-1.46,.35-.43,.73-.81,1.14-1.14,.41-.33,.8-.63,1.17-.9,.39-.28,.73-.54,1.03-.8,.29-.25,.54-.51,.74-.76,.2-.25,.35-.5,.45-.76,.1-.26,.15-.53,.15-.82,0-.57-.16-1-.48-1.29-.32-.29-.81-.44-1.48-.44-1.14,0-2.24,.45-3.28,1.36v-2.58c1.16-.75,2.46-1.12,3.92-1.12,.67,0,1.28,.09,1.81,.26,.54,.18,.99,.43,1.36,.76,.37,.33,.65,.73,.85,1.19,.2,.47,.29,.99,.29,1.56,0,.61-.09,1.16-.28,1.63-.19,.48-.44,.91-.75,1.3-.31,.39-.67,.75-1.08,1.07-.41,.32-.83,.64-1.27,.94-.3,.21-.58,.42-.86,.63-.27,.21-.52,.41-.73,.61-.21,.2-.38,.4-.5,.59-.12,.19-.19,.38-.19,.55Z"/>
      <path class="cls-3" d="M62.7,41.6c-3.17,0-4.75-2.22-4.75-6.67,0-2.31,.43-4.07,1.29-5.27s2.1-1.81,3.72-1.81c3.09,0,4.64,2.26,4.64,6.78,0,2.25-.42,3.98-1.27,5.18-.84,1.2-2.06,1.8-3.63,1.8Zm.13-11.52c-1.27,0-1.9,1.59-1.9,4.78,0,3,.62,4.5,1.86,4.5s1.82-1.55,1.82-4.64-.59-4.64-1.78-4.64Z"/>
      <path class="cls-3" d="M72.21,38.94h5.64v2.43h-8.85v-1c0-.68,.11-1.29,.34-1.83,.23-.54,.52-1.03,.86-1.46s.73-.81,1.14-1.14c.41-.33,.8-.63,1.17-.9,.39-.28,.73-.54,1.03-.8,.29-.25,.54-.51,.74-.76,.2-.25,.35-.5,.45-.76,.1-.26,.15-.53,.15-.82,0-.57-.16-1-.48-1.29-.32-.29-.81-.44-1.47-.44-1.14,0-2.24,.45-3.28,1.36v-2.58c1.16-.75,2.46-1.12,3.92-1.12,.67,0,1.28,.09,1.81,.26,.54,.18,.99,.43,1.36,.76,.37,.33,.65,.73,.85,1.19,.2,.47,.29,.99,.29,1.56,0,.61-.09,1.16-.28,1.63-.19,.48-.44,.91-.75,1.3s-.67,.75-1.08,1.07c-.41,.32-.83,.64-1.27,.94-.3,.21-.58,.42-.86,.63s-.52,.41-.73,.61-.38,.4-.5,.59c-.12,.19-.19,.38-.19,.55Z"/>
      <path class="cls-3" d="M80.25,40.93v-2.55c.89,.65,1.93,.97,3.12,.97,.75,0,1.33-.16,1.75-.48,.42-.32,.63-.77,.63-1.34s-.26-1.05-.77-1.37-1.23-.48-2.13-.48h-1.23v-2.25h1.14c1.73,0,2.6-.58,2.6-1.73,0-1.08-.67-1.62-2-1.62-.89,0-1.76,.29-2.6,.86v-2.39c.93-.47,2.02-.71,3.27-.71,1.36,0,2.42,.31,3.18,.92s1.14,1.41,1.14,2.38c0,1.74-.88,2.83-2.64,3.27v.05c.94,.12,1.68,.46,2.23,1.03,.54,.57,.82,1.26,.82,2.08,0,1.24-.45,2.23-1.36,2.95s-2.17,1.08-3.77,1.08c-1.37,0-2.49-.22-3.35-.67Z"/>
    </g>
    <path class="cls-2" d="M44.5,20.11l-.84,3.87h-3.98l-1.18,5.33h4.45l-.97,3.87h-4.28l-1.68,7.44h-4.3l1.57-7.44h-4.92l-1.59,7.44h-4.3l1.53-7.44h-4l.79-3.87h4.04l1.14-5.33h-4.34l.73-3.87h4.41l1.59-7.65h4.41l-1.59,7.65h4.92l1.63-7.65h4.37l-1.59,7.65h3.98Zm-9.16,3.87h-4.99l-1.18,5.33h4.97l1.2-5.33Z"/>
  </g>
</svg>