<?xml version="1.0" encoding="utf-8"?>
<!-- Generator: Adobe Illustrator 23.0.0, SVG Export Plug-In . SVG Version: 6.00 Build 0)  -->
<svg version="1.1" id="Layer_1" xmlns="http://www.w3.org/2000/svg" xmlns:xlink="http://www.w3.org/1999/xlink" x="0px" y="0px"
	 viewBox="0 0 167.6 51.9" style="enable-background:new 0 0 167.6 51.9;" xml:space="preserve">
<style type="text/css">
	.st0{fill:#A1A3A5;}
	.st1{fill:#F25022;}
	.st2{fill:#7FBA00;}
	.st3{fill:#00A4EF;}
	.st4{fill:#FFB900;}
</style>
<title>forbes-ms-logo</title>
<g>
	<g id="Layer_1-2_5_">
		<polygon class="st0" points="66,12.1 66,28.6 69.7,28.6 69.7,7.2 64.6,7.2 58.1,23.1 51.8,7.2 46.5,7.2 46.5,28.6 50,28.6 
			50,12.1 50.1,12.1 56.7,28.6 59.4,28.6 65.9,12.1 		"/>
		<path class="st0" d="M75,6.7c-0.6,0-1.1,0.2-1.5,0.6c-0.4,0.4-0.7,0.9-0.6,1.5c0,0.6,0.2,1.1,0.6,1.5c0.4,0.4,1,0.6,1.5,0.6
			c0.6,0,1.1-0.2,1.6-0.6c0.4-0.4,0.7-0.9,0.6-1.5c0-0.6-0.2-1.1-0.6-1.5C76.2,6.9,75.6,6.7,75,6.7 M76.8,13.2h-3.6v15.4h3.6
			L76.8,13.2z"/>
		<path class="st0" d="M87.6,12.9c-1.5,0-3,0.3-4.4,1.1c-1.2,0.7-2.3,1.7-2.9,3c-0.7,1.4-1,2.9-1,4.4c0,1.4,0.3,2.8,1,4
			c0.6,1.1,1.6,2,2.7,2.6c1.2,0.7,2.6,1,4,1c1.5,0.1,3-0.3,4.4-1l0,0v-3.4l-0.2,0.1c-0.5,0.4-1.1,0.7-1.8,0.9
			c-0.6,0.2-1.1,0.3-1.7,0.3c-1.3,0.1-2.5-0.4-3.4-1.3c-0.9-1-1.3-2.3-1.3-3.7c-0.1-1.4,0.4-2.7,1.3-3.8c0.9-0.9,2.1-1.4,3.4-1.4
			c1.2,0,2.5,0.4,3.4,1.2l0.2,0.1v-3.5l0,0c-0.5-0.3-1.1-0.5-1.7-0.6C89,13,88.3,12.9,87.6,12.9"/>
		<path class="st0" d="M97.7,15.9v-2.7h-3.6v15.4h3.6v-7.9c0-1.2,0.3-2.3,0.9-3.3c0.5-0.8,1.4-1.2,2.3-1.2c0.4,0,0.7,0.1,1.1,0.2
			c0.3,0.1,0.6,0.2,0.8,0.3l0.2,0.1v-3.7h-0.1c-1.3-0.4-2.7-0.2-3.8,0.6C98.5,14.4,98,15.1,97.7,15.9L97.7,15.9z"/>
		<path class="st0" d="M111.4,12.9c-2.2-0.1-4.4,0.7-6,2.2c-1.5,1.6-2.3,3.8-2.2,6c-0.1,2.1,0.7,4.2,2.1,5.8
			c1.5,1.5,3.6,2.3,5.7,2.2c2.2,0.1,4.3-0.7,5.9-2.2c1.5-1.6,2.3-3.8,2.2-6c0.1-2.1-0.6-4.2-2-5.8C115.5,13.5,113.5,12.7,111.4,12.9
			 M111.2,26c-1.2,0.1-2.3-0.4-3.1-1.3c-0.8-1.1-1.2-2.4-1.1-3.7c-0.1-1.4,0.3-2.7,1.1-3.8c0.8-0.9,1.9-1.4,3.1-1.3
			c1.1-0.1,2.2,0.4,3,1.3c0.8,1.1,1.2,2.4,1.1,3.8c0.1,1.3-0.2,2.7-1,3.8C113.6,25.6,112.4,26.1,111.2,26"/>
		<path class="st0" d="M126.7,12.9c-1.5-0.1-3,0.4-4.2,1.3c-1.1,0.8-1.7,2.1-1.7,3.4c0,0.7,0.1,1.3,0.3,1.9c0.2,0.6,0.6,1,1.1,1.4
			c0.7,0.5,1.4,0.9,2.2,1.3c0.6,0.2,1.3,0.5,1.8,0.9c0.3,0.2,0.6,0.4,0.8,0.7c0.2,0.3,0.2,0.6,0.2,0.9c0,1-0.8,1.5-2.4,1.5
			c-0.7,0-1.4-0.1-2-0.4c-0.7-0.2-1.4-0.6-2-1l-0.2-0.1v3.5l0,0c0.6,0.3,1.3,0.5,1.9,0.6c0.7,0.1,1.4,0.2,2.1,0.2
			c1.6,0.1,3.2-0.4,4.5-1.3c1.1-0.8,1.7-2.1,1.7-3.5c0-1-0.3-1.9-0.9-2.6c-0.8-0.9-1.9-1.5-3-1.9c-0.8-0.3-1.5-0.6-2.2-1.1
			c-0.3-0.3-0.5-0.7-0.4-1.2c0-0.4,0.2-0.8,0.6-1.1c0.5-0.3,1-0.5,1.6-0.4c0.6,0,1.3,0.1,1.8,0.3c0.6,0.2,1.1,0.4,1.6,0.8l0.1,0.1
			v-3.3h-0.1c-0.5-0.2-1.1-0.4-1.6-0.5C127.9,13,127.3,12.9,126.7,12.9"/>
		<path class="st0" d="M140.7,12.9c-2.2-0.1-4.4,0.7-6,2.2c-1.5,1.6-2.3,3.8-2.2,6c-0.1,2.1,0.7,4.2,2.1,5.8
			c1.5,1.5,3.6,2.3,5.7,2.2c2.2,0.1,4.3-0.7,5.9-2.2c1.5-1.6,2.3-3.8,2.2-6c0.1-2.1-0.6-4.2-2-5.8C144.8,13.5,142.8,12.7,140.7,12.9
			 M140.5,26c-1.2,0.1-2.3-0.4-3.1-1.3c-0.8-1.1-1.2-2.4-1.1-3.7c-0.1-1.4,0.3-2.7,1.1-3.8c0.8-0.9,1.9-1.4,3.1-1.3
			c1.1-0.1,2.2,0.4,3,1.3c0.8,1.1,1.2,2.4,1.1,3.8c0.1,1.3-0.2,2.7-1,3.8C142.9,25.6,141.7,26.1,140.5,26"/>
		<path class="st0" d="M167.6,16.2v-3H164V8.7h-0.1l-3.5,1.1h-0.1v3.5h-5.4v-1.9c-0.1-0.7,0.2-1.5,0.6-2.1c0.4-0.5,1-0.7,1.7-0.7
			c0.5,0,1.1,0.1,1.6,0.4l0.1,0.1V5.9h-0.1c-0.6-0.2-1.3-0.3-2-0.3c-1,0-2,0.2-2.9,0.7c-0.8,0.5-1.5,1.2-2,2
			c-0.5,0.9-0.7,1.9-0.7,2.9v2.1h-2.6v3h2.6v12.3h3.7V16.2h5.4v7.9c0,3.3,1.5,4.9,4.6,4.9c0.5,0,1-0.1,1.6-0.2
			c0.4-0.1,0.8-0.2,1.1-0.4l0,0v-3l-0.1,0.1c-0.2,0.1-0.5,0.3-0.7,0.3c-0.2,0.1-0.5,0.1-0.7,0.1c-0.6,0-1.1-0.2-1.6-0.6
			c-0.4-0.6-0.6-1.3-0.5-2v-7.2H167.6z"/>
		<rect class="st1" width="17" height="17"/>
		<rect x="18.8" class="st2" width="17" height="17"/>
		<rect y="18.8" class="st3" width="17" height="17"/>
		<rect x="18.8" y="18.8" class="st4" width="17" height="17"/>
	</g>
</g>
<g>
	<path d="M1,43.4h3.4c2,0,3.2,1.2,3.2,2.9v0c0,1.9-1.5,3-3.4,3H2.9v2.5H1V43.4z M4.3,47.6c0.9,0,1.5-0.6,1.5-1.3v0
		c0-0.8-0.6-1.3-1.5-1.3H2.9v2.6H4.3z"/>
	<path d="M13.9,43.3h1.7l3.6,8.5h-1.9l-0.8-1.9H13l-0.8,1.9h-1.9L13.9,43.3z M15.9,48.3l-1.1-2.7l-1.1,2.7H15.9z"/>
	<path d="M23.4,43.4h3.8c1.1,0,1.9,0.3,2.4,0.9c0.5,0.5,0.7,1.1,0.7,1.9v0c0,1.4-0.7,2.2-1.8,2.6l2.1,3h-2.2l-1.8-2.7h-1.5v2.7h-1.8
		V43.4z M27.1,47.5c0.9,0,1.4-0.5,1.4-1.2v0c0-0.8-0.6-1.2-1.5-1.2h-1.8v2.4H27.1z"/>
	<path d="M36.9,45.1h-2.6v-1.7h7v1.7h-2.6v6.7h-1.8V45.1z"/>
	<path d="M45.6,43.4h1.7l3.9,5.2v-5.2h1.8v8.4h-1.6l-4.1-5.3v5.3h-1.8V43.4z"/>
	<path d="M58,43.4h6.3V45h-4.5v1.7h4v1.6h-4v1.8h4.6v1.6H58V43.4z"/>
	<path d="M68.9,43.4h3.8c1.1,0,1.9,0.3,2.4,0.9c0.5,0.5,0.7,1.1,0.7,1.9v0c0,1.4-0.7,2.2-1.8,2.6l2.1,3H74l-1.8-2.7h-1.5v2.7h-1.8
		V43.4z M72.6,47.5c0.9,0,1.4-0.5,1.4-1.2v0c0-0.8-0.6-1.2-1.5-1.2h-1.8v2.4H72.6z"/>
	<path d="M86.4,50.6l1.1-1.3c0.8,0.6,1.5,1,2.5,1c0.8,0,1.2-0.3,1.2-0.8v0c0-0.5-0.3-0.7-1.7-1.1c-1.7-0.4-2.8-0.9-2.8-2.6v0
		c0-1.5,1.2-2.5,2.9-2.5c1.2,0,2.3,0.4,3.1,1.1l-1,1.4c-0.7-0.5-1.5-0.8-2.2-0.8c-0.7,0-1.1,0.3-1.1,0.7v0c0,0.6,0.4,0.7,1.8,1.1
		c1.7,0.4,2.7,1.1,2.7,2.5v0c0,1.7-1.3,2.6-3.1,2.6C88.7,51.9,87.4,51.5,86.4,50.6z"/>
	<path d="M97.5,43.4h3.4c2,0,3.2,1.2,3.2,2.9v0c0,1.9-1.5,3-3.4,3h-1.4v2.5h-1.8V43.4z M100.8,47.6c0.9,0,1.5-0.6,1.5-1.3v0
		c0-0.8-0.6-1.3-1.5-1.3h-1.4v2.6H100.8z"/>
	<path d="M108.4,43.4h6.3V45h-4.5v1.7h4v1.6h-4v1.8h4.6v1.6h-6.4V43.4z"/>
	<path d="M119,47.6L119,47.6c0-2.4,1.8-4.4,4.4-4.4c1.6,0,2.5,0.5,3.3,1.3l-1.2,1.4c-0.6-0.6-1.3-0.9-2.1-0.9
		c-1.4,0-2.4,1.2-2.4,2.6v0c0,1.4,1,2.6,2.4,2.6c1,0,1.5-0.4,2.2-1l1.2,1.2c-0.9,0.9-1.8,1.5-3.4,1.5C120.8,51.9,119,50,119,47.6z"
		/>
	<path d="M131.1,43.4h1.8v8.4h-1.8V43.4z"/>
	<path d="M140.9,43.3h1.7l3.6,8.5h-1.9l-0.8-1.9h-3.5l-0.8,1.9h-1.9L140.9,43.3z M142.8,48.3l-1.1-2.7l-1.1,2.7H142.8z M142.4,40.7
		l1.6,0.7l-1.6,1.2H141L142.4,40.7z"/>
	<path d="M150.3,43.4h1.8v6.7h4.2v1.7h-6V43.4z"/>
	<path d="M160.3,48.2v-4.8h1.8v4.7c0,1.4,0.7,2.1,1.8,2.1c1.1,0,1.8-0.7,1.8-2v-4.8h1.8v4.7c0,2.5-1.4,3.8-3.7,3.8
		S160.3,50.7,160.3,48.2z"/>
</g>
</svg>
