<?xml version="1.0" encoding="UTF-8" standalone="no"?>
<!-- Generator: Adobe Illustrator 23.0.0, SVG Export Plug-In . SVG Version: 6.00 Build 0)  -->

<svg
   xmlns:dc="http://purl.org/dc/elements/1.1/"
   xmlns:cc="http://creativecommons.org/ns#"
   xmlns:rdf="http://www.w3.org/1999/02/22-rdf-syntax-ns#"
   xmlns:svg="http://www.w3.org/2000/svg"
   xmlns="http://www.w3.org/2000/svg"
   xmlns:sodipodi="http://sodipodi.sourceforge.net/DTD/sodipodi-0.dtd"
   xmlns:inkscape="http://www.inkscape.org/namespaces/inkscape"
   version="1.1"
   id="Layer_1"
   x="0px"
   y="0px"
   viewBox="0 0 167.6 51.9"
   style="enable-background:new 0 0 167.6 51.9;"
   xml:space="preserve"
   sodipodi:docname="mslogo.svg"
   inkscape:version="0.92.4 (5da689c313, 2019-01-14)"><metadata
   id="metadata70"><rdf:RDF><cc:Work
       rdf:about=""><dc:format>image/svg+xml</dc:format><dc:type
         rdf:resource="http://purl.org/dc/dcmitype/StillImage" /></cc:Work></rdf:RDF></metadata><defs
   id="defs68" /><sodipodi:namedview
   pagecolor="#ffffff"
   bordercolor="#666666"
   borderopacity="1"
   objecttolerance="10"
   gridtolerance="10"
   guidetolerance="10"
   inkscape:pageopacity="0"
   inkscape:pageshadow="2"
   inkscape:window-width="2560"
   inkscape:window-height="1377"
   id="namedview66"
   showgrid="false"
   inkscape:zoom="6.1091323"
   inkscape:cx="129.38175"
   inkscape:cy="7.8962034"
   inkscape:window-x="-8"
   inkscape:window-y="-8"
   inkscape:window-maximized="1"
   inkscape:current-layer="Layer_1" />
<style
   type="text/css"
   id="style2">
	.st0{fill:#A1A3A5;}
	.st1{fill:#F25022;}
	.st2{fill:#7FBA00;}
	.st3{fill:#00A4EF;}
	.st4{fill:#FFB900;}
</style>
<title
   id="title4">forbes-ms-logo</title>
<text
   xml:space="preserve"
   style="font-style:normal;font-weight:normal;font-size:40px;line-height:1.25;font-family:sans-serif;letter-spacing:3.58999991px;word-spacing:0px;fill:#000000;fill-opacity:1;stroke:none"
   x="-0.81022096"
   y="51.668507"
   id="text4582"><tspan
     sodipodi:role="line"
     id="tspan4580"
     x="-0.81022096"
     y="51.668507"
     style="font-style:normal;font-variant:normal;font-weight:bold;font-stretch:normal;font-size:12px;line-height:1.25;font-family:'Segoe UI';-inkscape-font-specification:'Segoe UI Bold';letter-spacing:3.54px;word-spacing:0px"
     dx="0"
     rotate="0 0 0 0 0 0 0 0 0 0 0 0 0 0 0 0 0">PARTNER PROJEKTU</tspan></text>
<g
   id="g31">
	<g
   id="Layer_1-2_5_">
		<polygon
   class="st0"
   points="66,12.1 66,28.6 69.7,28.6 69.7,7.2 64.6,7.2 58.1,23.1 51.8,7.2 46.5,7.2 46.5,28.6 50,28.6     50,12.1 50.1,12.1 56.7,28.6 59.4,28.6 65.9,12.1   "
   id="polygon6" />
		<path
   class="st0"
   d="M75,6.7c-0.6,0-1.1,0.2-1.5,0.6c-0.4,0.4-0.7,0.9-0.6,1.5c0,0.6,0.2,1.1,0.6,1.5c0.4,0.4,1,0.6,1.5,0.6    c0.6,0,1.1-0.2,1.6-0.6c0.4-0.4,0.7-0.9,0.6-1.5c0-0.6-0.2-1.1-0.6-1.5C76.2,6.9,75.6,6.7,75,6.7 M76.8,13.2h-3.6v15.4h3.6    L76.8,13.2z"
   id="path8" />
		<path
   class="st0"
   d="M87.6,12.9c-1.5,0-3,0.3-4.4,1.1c-1.2,0.7-2.3,1.7-2.9,3c-0.7,1.4-1,2.9-1,4.4c0,1.4,0.3,2.8,1,4    c0.6,1.1,1.6,2,2.7,2.6c1.2,0.7,2.6,1,4,1c1.5,0.1,3-0.3,4.4-1l0,0v-3.4l-0.2,0.1c-0.5,0.4-1.1,0.7-1.8,0.9    c-0.6,0.2-1.1,0.3-1.7,0.3c-1.3,0.1-2.5-0.4-3.4-1.3c-0.9-1-1.3-2.3-1.3-3.7c-0.1-1.4,0.4-2.7,1.3-3.8c0.9-0.9,2.1-1.4,3.4-1.4    c1.2,0,2.5,0.4,3.4,1.2l0.2,0.1v-3.5l0,0c-0.5-0.3-1.1-0.5-1.7-0.6C89,13,88.3,12.9,87.6,12.9"
   id="path10" />
		<path
   class="st0"
   d="M97.7,15.9v-2.7h-3.6v15.4h3.6v-7.9c0-1.2,0.3-2.3,0.9-3.3c0.5-0.8,1.4-1.2,2.3-1.2c0.4,0,0.7,0.1,1.1,0.2    c0.3,0.1,0.6,0.2,0.8,0.3l0.2,0.1v-3.7h-0.1c-1.3-0.4-2.7-0.2-3.8,0.6C98.5,14.4,98,15.1,97.7,15.9L97.7,15.9z"
   id="path12" />
		<path
   class="st0"
   d="M111.4,12.9c-2.2-0.1-4.4,0.7-6,2.2c-1.5,1.6-2.3,3.8-2.2,6c-0.1,2.1,0.7,4.2,2.1,5.8    c1.5,1.5,3.6,2.3,5.7,2.2c2.2,0.1,4.3-0.7,5.9-2.2c1.5-1.6,2.3-3.8,2.2-6c0.1-2.1-0.6-4.2-2-5.8C115.5,13.5,113.5,12.7,111.4,12.9     M111.2,26c-1.2,0.1-2.3-0.4-3.1-1.3c-0.8-1.1-1.2-2.4-1.1-3.7c-0.1-1.4,0.3-2.7,1.1-3.8c0.8-0.9,1.9-1.4,3.1-1.3    c1.1-0.1,2.2,0.4,3,1.3c0.8,1.1,1.2,2.4,1.1,3.8c0.1,1.3-0.2,2.7-1,3.8C113.6,25.6,112.4,26.1,111.2,26"
   id="path14" />
		<path
   class="st0"
   d="M126.7,12.9c-1.5-0.1-3,0.4-4.2,1.3c-1.1,0.8-1.7,2.1-1.7,3.4c0,0.7,0.1,1.3,0.3,1.9c0.2,0.6,0.6,1,1.1,1.4    c0.7,0.5,1.4,0.9,2.2,1.3c0.6,0.2,1.3,0.5,1.8,0.9c0.3,0.2,0.6,0.4,0.8,0.7c0.2,0.3,0.2,0.6,0.2,0.9c0,1-0.8,1.5-2.4,1.5    c-0.7,0-1.4-0.1-2-0.4c-0.7-0.2-1.4-0.6-2-1l-0.2-0.1v3.5l0,0c0.6,0.3,1.3,0.5,1.9,0.6c0.7,0.1,1.4,0.2,2.1,0.2    c1.6,0.1,3.2-0.4,4.5-1.3c1.1-0.8,1.7-2.1,1.7-3.5c0-1-0.3-1.9-0.9-2.6c-0.8-0.9-1.9-1.5-3-1.9c-0.8-0.3-1.5-0.6-2.2-1.1    c-0.3-0.3-0.5-0.7-0.4-1.2c0-0.4,0.2-0.8,0.6-1.1c0.5-0.3,1-0.5,1.6-0.4c0.6,0,1.3,0.1,1.8,0.3c0.6,0.2,1.1,0.4,1.6,0.8l0.1,0.1    v-3.3h-0.1c-0.5-0.2-1.1-0.4-1.6-0.5C127.9,13,127.3,12.9,126.7,12.9"
   id="path16" />
		<path
   class="st0"
   d="M140.7,12.9c-2.2-0.1-4.4,0.7-6,2.2c-1.5,1.6-2.3,3.8-2.2,6c-0.1,2.1,0.7,4.2,2.1,5.8    c1.5,1.5,3.6,2.3,5.7,2.2c2.2,0.1,4.3-0.7,5.9-2.2c1.5-1.6,2.3-3.8,2.2-6c0.1-2.1-0.6-4.2-2-5.8C144.8,13.5,142.8,12.7,140.7,12.9     M140.5,26c-1.2,0.1-2.3-0.4-3.1-1.3c-0.8-1.1-1.2-2.4-1.1-3.7c-0.1-1.4,0.3-2.7,1.1-3.8c0.8-0.9,1.9-1.4,3.1-1.3    c1.1-0.1,2.2,0.4,3,1.3c0.8,1.1,1.2,2.4,1.1,3.8c0.1,1.3-0.2,2.7-1,3.8C142.9,25.6,141.7,26.1,140.5,26"
   id="path18" />
		<path
   class="st0"
   d="M167.6,16.2v-3H164V8.7h-0.1l-3.5,1.1h-0.1v3.5h-5.4v-1.9c-0.1-0.7,0.2-1.5,0.6-2.1c0.4-0.5,1-0.7,1.7-0.7    c0.5,0,1.1,0.1,1.6,0.4l0.1,0.1V5.9h-0.1c-0.6-0.2-1.3-0.3-2-0.3c-1,0-2,0.2-2.9,0.7c-0.8,0.5-1.5,1.2-2,2    c-0.5,0.9-0.7,1.9-0.7,2.9v2.1h-2.6v3h2.6v12.3h3.7V16.2h5.4v7.9c0,3.3,1.5,4.9,4.6,4.9c0.5,0,1-0.1,1.6-0.2    c0.4-0.1,0.8-0.2,1.1-0.4l0,0v-3l-0.1,0.1c-0.2,0.1-0.5,0.3-0.7,0.3c-0.2,0.1-0.5,0.1-0.7,0.1c-0.6,0-1.1-0.2-1.6-0.6    c-0.4-0.6-0.6-1.3-0.5-2v-7.2H167.6z"
   id="path20" />
		<rect
   class="st1"
   width="17"
   height="17"
   id="rect22" />
		<rect
   x="18.8"
   class="st2"
   width="17"
   height="17"
   id="rect24" />
		<rect
   y="18.8"
   class="st3"
   width="17"
   height="17"
   id="rect26" />
		<rect
   x="18.8"
   y="18.8"
   class="st4"
   width="17"
   height="17"
   id="rect28" />
	</g>
</g>

</svg>