<?xml version="1.0" encoding="UTF-8" standalone="no"?>
<!-- Generator: Adobe Illustrator 23.0.0, SVG Export Plug-In . SVG Version: 6.00 Build 0)  -->

<svg
   xmlns:dc="http://purl.org/dc/elements/1.1/"
   xmlns:cc="http://creativecommons.org/ns#"
   xmlns:rdf="http://www.w3.org/1999/02/22-rdf-syntax-ns#"
   xmlns:svg="http://www.w3.org/2000/svg"
   xmlns="http://www.w3.org/2000/svg"
   xmlns:sodipodi="http://sodipodi.sourceforge.net/DTD/sodipodi-0.dtd"
   xmlns:inkscape="http://www.inkscape.org/namespaces/inkscape"
   version="1.1"
   id="Layer_1"
   x="0px"
   y="0px"
   viewBox="0 0 167.6 51.9"
   style="enable-background:new 0 0 167.6 51.9;"
   xml:space="preserve"
   sodipodi:docname="mslogo.svg"
   inkscape:version="0.92.4 (5da689c313, 2019-01-14)"><metadata
   id="metadata70"><rdf:RDF><cc:Work
       rdf:about=""><dc:format>image/svg+xml</dc:format><dc:type
         rdf:resource="http://purl.org/dc/dcmitype/StillImage" /></cc:Work></rdf:RDF></metadata><defs
   id="defs68" /><sodipodi:namedview
   pagecolor="#ffffff"
   bordercolor="#666666"
   borderopacity="1"
   objecttolerance="10"
   gridtolerance="10"
   guidetolerance="10"
   inkscape:pageopacity="0"
   inkscape:pageshadow="2"
   inkscape:window-width="1518"
   inkscape:window-height="1091"
   id="namedview66"
   showgrid="false"
   inkscape:zoom="4.3198089"
   inkscape:cx="77.333969"
   inkscape:cy="13.133186"
   inkscape:window-x="996"
   inkscape:window-y="151"
   inkscape:window-maximized="0"
   inkscape:current-layer="Layer_1" />
<style
   type="text/css"
   id="style2">
	.st0{fill:#A1A3A5;}
	.st1{fill:#F25022;}
	.st2{fill:#7FBA00;}
	.st3{fill:#00A4EF;}
	.st4{fill:#FFB900;}
</style>
<title
   id="title4">forbes-ms-logo</title>
<g
   aria-label="PARTNER PROJEKTU"
   style="font-style:normal;font-weight:normal;font-size:40px;line-height:1.25;font-family:sans-serif;letter-spacing:3.58999991px;word-spacing:0px;fill:#000000;fill-opacity:1;stroke:none"
   id="text4582"><path
     sodipodi:type="inkscape:offset"
     inkscape:radius="0"
     inkscape:original="M 111.0957 43.125 C 109.82617 43.125 108.80664 43.535156 108.03711 44.355469 C 107.26758 45.175781 106.88281 46.25 106.88281 47.578125 C 106.88281 48.835938 107.26172 49.857422 108.01953 50.642578 C 108.77734 51.423828 109.75782 51.814453 110.96094 51.814453 C 112.19532 51.814453 113.19532 51.410156 113.96094 50.601562 C 114.73047 49.792969 115.11523 48.728516 115.11523 47.408203 C 115.11523 46.123047 114.74414 45.087891 114.00195 44.302734 C 113.26367 43.517578 112.29492 43.125 111.0957 43.125 z M 0.15039062 43.265625 L 0.15039062 51.667969 L 2.0429688 51.667969 L 2.0429688 48.773438 L 2.9453125 48.773438 C 3.9609375 48.773437 4.7714844 48.513672 5.3769531 47.994141 C 5.9863281 47.470703 6.2910156 46.787109 6.2910156 45.943359 C 6.2910156 44.158203 5.2324218 43.265625 3.1152344 43.265625 L 0.15039062 43.265625 z M 12.527344 43.265625 L 9.46875 51.667969 L 11.519531 51.667969 L 12.111328 49.798828 L 15.099609 49.798828 L 15.697266 51.667969 L 17.759766 51.667969 L 14.771484 43.265625 L 12.527344 43.265625 z M 22.347656 43.265625 L 22.347656 51.667969 L 24.240234 51.667969 L 24.240234 48.451172 L 24.75 48.451172 C 24.867187 48.451172 24.97461 48.476564 25.072266 48.527344 C 25.173828 48.574218 25.269531 48.644531 25.359375 48.738281 C 25.453125 48.828125 25.544922 48.9375 25.634766 49.066406 C 25.72461 49.195312 25.81836 49.341797 25.916016 49.505859 L 27.222656 51.667969 L 29.396484 51.667969 L 27.808594 49.183594 C 27.726563 49.054687 27.634766 48.923828 27.533203 48.791016 C 27.435546 48.654297 27.332031 48.527344 27.222656 48.410156 C 27.113281 48.292969 27 48.191406 26.882812 48.105469 C 26.765625 48.015622 26.644531 47.951169 26.519531 47.912109 L 26.519531 47.888672 C 26.804687 47.806641 27.0625 47.693359 27.292969 47.548828 C 27.527344 47.404297 27.726562 47.232422 27.890625 47.033203 C 28.054687 46.833984 28.18164 46.611328 28.271484 46.365234 C 28.361328 46.115234 28.40625 45.84375 28.40625 45.550781 C 28.40625 44.027344 27.386719 43.265625 25.347656 43.265625 L 22.347656 43.265625 z M 32.703125 43.265625 L 32.703125 44.806641 L 35.087891 44.806641 L 35.087891 51.667969 L 36.986328 51.667969 L 36.986328 44.806641 L 39.382812 44.806641 L 39.382812 43.265625 L 32.703125 43.265625 z M 44.052734 43.265625 L 44.052734 51.667969 L 45.839844 51.667969 L 45.839844 47.050781 C 45.839844 46.441407 45.824215 45.988282 45.792969 45.691406 L 45.816406 45.691406 C 45.894531 45.847656 46.035156 46.080078 46.238281 46.388672 L 49.701172 51.667969 L 51.611328 51.667969 L 51.611328 43.265625 L 49.824219 43.265625 L 49.824219 47.912109 C 49.824219 48.486328 49.839847 48.871094 49.871094 49.066406 L 49.847656 49.066406 C 49.71875 48.839844 49.578125 48.611328 49.425781 48.380859 L 46.091797 43.265625 L 44.052734 43.265625 z M 57.085938 43.265625 L 57.085938 51.667969 L 62.125 51.667969 L 62.125 50.132812 L 58.978516 50.132812 L 58.978516 48.210938 L 61.726562 48.210938 L 61.726562 46.675781 L 58.978516 46.675781 L 58.978516 44.806641 L 61.931641 44.806641 L 61.931641 43.265625 L 57.085938 43.265625 z M 67.023438 43.265625 L 67.023438 51.667969 L 68.916016 51.667969 L 68.916016 48.451172 L 69.425781 48.451172 C 69.542969 48.451172 69.650391 48.476564 69.748047 48.527344 C 69.84961 48.574218 69.945312 48.644531 70.035156 48.738281 C 70.128906 48.828125 70.220704 48.9375 70.310547 49.066406 C 70.400391 49.195312 70.494141 49.341797 70.591797 49.505859 L 71.898438 51.667969 L 74.072266 51.667969 L 72.484375 49.183594 C 72.402344 49.054687 72.310547 48.923828 72.208984 48.791016 C 72.111328 48.654297 72.007812 48.527344 71.898438 48.410156 C 71.789062 48.292969 71.675781 48.191406 71.558594 48.105469 C 71.441406 48.015622 71.320312 47.951169 71.195312 47.912109 L 71.195312 47.888672 C 71.480469 47.806641 71.738281 47.693359 71.96875 47.548828 C 72.203125 47.404297 72.402344 47.232422 72.566406 47.033203 C 72.730468 46.833984 72.857422 46.611328 72.947266 46.365234 C 73.03711 46.115234 73.082031 45.84375 73.082031 45.550781 C 73.082031 44.027344 72.0625 43.265625 70.023438 43.265625 L 67.023438 43.265625 z M 85.236328 43.265625 L 85.236328 51.667969 L 87.128906 51.667969 L 87.128906 48.773438 L 88.03125 48.773438 C 89.046875 48.773437 89.857422 48.513672 90.462891 47.994141 C 91.072265 47.470703 91.376953 46.787109 91.376953 45.943359 C 91.376953 44.158203 90.318359 43.265625 88.201172 43.265625 L 85.236328 43.265625 z M 96.158203 43.265625 L 96.158203 51.667969 L 98.050781 51.667969 L 98.050781 48.451172 L 98.560547 48.451172 C 98.677735 48.451172 98.785156 48.476562 98.882812 48.527344 C 98.984375 48.574218 99.080079 48.644531 99.169922 48.738281 C 99.263672 48.828125 99.355469 48.9375 99.445312 49.066406 C 99.535156 49.195312 99.628906 49.341797 99.726562 49.505859 L 101.0332 51.667969 L 103.20703 51.667969 L 101.61914 49.183594 C 101.53711 49.054687 101.44532 48.923828 101.34375 48.791016 C 101.2461 48.654297 101.14258 48.527344 101.0332 48.410156 C 100.92383 48.292969 100.81055 48.191406 100.69336 48.105469 C 100.57617 48.015622 100.45508 47.951169 100.33008 47.912109 L 100.33008 47.888672 C 100.61523 47.806641 100.87304 47.693359 101.10352 47.548828 C 101.33789 47.404297 101.53711 47.232422 101.70117 47.033203 C 101.86524 46.833984 101.99219 46.611328 102.08203 46.365234 C 102.17188 46.115234 102.2168 45.84375 102.2168 45.550781 C 102.2168 44.027344 101.19727 43.265625 99.158203 43.265625 L 96.158203 43.265625 z M 121.54297 43.265625 L 121.54297 48.257812 C 121.54297 49.539062 121.11133 50.179688 120.24805 50.179688 C 119.84571 50.179688 119.48242 50.05664 119.1582 49.810547 L 119.1582 51.585938 C 119.5332 51.738282 119.94141 51.814453 120.38281 51.814453 C 121.37109 51.814453 122.125 51.515625 122.64453 50.917969 C 123.16796 50.320312 123.42969 49.458984 123.42969 48.333984 L 123.42969 43.265625 L 121.54297 43.265625 z M 128.81055 43.265625 L 128.81055 51.667969 L 133.84961 51.667969 L 133.84961 50.132812 L 130.70312 50.132812 L 130.70312 48.210938 L 133.45117 48.210938 L 133.45117 46.675781 L 130.70312 46.675781 L 130.70312 44.806641 L 133.65625 44.806641 L 133.65625 43.265625 L 128.81055 43.265625 z M 138.74805 43.265625 L 138.74805 51.667969 L 140.64062 51.667969 L 140.64062 47.554688 L 140.66992 47.554688 C 140.7715 47.792969 140.84571 47.947265 140.89258 48.017578 L 143.3418 51.667969 L 145.73242 51.667969 L 142.55078 47.273438 L 145.48047 43.265625 L 143.22461 43.265625 L 140.9043 46.769531 C 140.79491 46.972657 140.71679 47.128907 140.66992 47.238281 L 140.64062 47.238281 L 140.64062 43.265625 L 138.74805 43.265625 z M 149.36133 43.265625 L 149.36133 44.806641 L 151.74609 44.806641 L 151.74609 51.667969 L 153.64453 51.667969 L 153.64453 44.806641 L 156.04102 44.806641 L 156.04102 43.265625 L 149.36133 43.265625 z M 160.61133 43.265625 L 160.61133 48.117188 C 160.61133 50.582032 161.75195 51.814453 164.0332 51.814453 C 166.38476 51.814453 167.56055 50.552734 167.56055 48.029297 L 167.56055 43.265625 L 165.66797 43.265625 L 165.66797 48.210938 C 165.66797 49.523438 165.14648 50.179688 164.10352 50.179688 C 163.04102 50.179688 162.50977 49.5 162.50977 48.140625 L 162.50977 43.265625 L 160.61133 43.265625 z M 24.240234 44.683594 L 25.095703 44.683594 C 25.974609 44.683594 26.414062 45.050782 26.414062 45.785156 C 26.414062 46.136719 26.289062 46.431641 26.039062 46.669922 C 25.792969 46.904297 25.466797 47.021484 25.060547 47.021484 L 24.240234 47.021484 L 24.240234 44.683594 z M 68.916016 44.683594 L 69.771484 44.683594 C 70.65039 44.683594 71.089844 45.050782 71.089844 45.785156 C 71.089844 46.136719 70.964844 46.431641 70.714844 46.669922 C 70.46875 46.904297 70.142578 47.021484 69.736328 47.021484 L 68.916016 47.021484 L 68.916016 44.683594 z M 98.050781 44.683594 L 98.90625 44.683594 C 99.785155 44.683594 100.22461 45.050782 100.22461 45.785156 C 100.22461 46.136719 100.09961 46.431641 99.849609 46.669922 C 99.603515 46.904297 99.277344 47.021484 98.871094 47.021484 L 98.050781 47.021484 L 98.050781 44.683594 z M 2.0429688 44.71875 L 2.7871094 44.71875 C 3.7949218 44.71875 4.2988281 45.150391 4.2988281 46.013672 C 4.2988281 46.896484 3.7949218 47.337891 2.7871094 47.337891 L 2.0429688 47.337891 L 2.0429688 44.71875 z M 87.128906 44.71875 L 87.873047 44.71875 C 88.88086 44.71875 89.384766 45.150391 89.384766 46.013672 C 89.384766 46.896484 88.88086 47.337891 87.873047 47.337891 L 87.128906 47.337891 L 87.128906 44.71875 z M 111.04297 44.753906 C 111.6875 44.753906 112.19531 44.996093 112.56641 45.480469 C 112.9375 45.964843 113.12305 46.642578 113.12305 47.513672 C 113.12305 48.349609 112.93164 49.003906 112.54883 49.476562 C 112.16602 49.945312 111.64844 50.179688 110.99609 50.179688 C 110.36328 50.179688 109.85156 49.9375 109.46094 49.453125 C 109.07032 48.96875 108.875 48.310547 108.875 47.478516 C 108.875 46.658204 109.07032 46 109.46094 45.503906 C 109.85156 45.003906 110.3789 44.753906 111.04297 44.753906 z M 13.576172 44.765625 L 13.623047 44.765625 C 13.65039 45.058594 13.697265 45.310547 13.763672 45.521484 L 14.666016 48.345703 L 12.515625 48.345703 L 13.429688 45.498047 C 13.50781 45.255859 13.556639 45.011718 13.576172 44.765625 z "
     style="font-style:normal;font-variant:normal;font-weight:bold;font-stretch:normal;font-size:12px;line-height:1.25;font-family:'Segoe UI';-inkscape-font-specification:'Segoe UI Bold';letter-spacing:3.53999996px;word-spacing:0px"
     id="path887"
     d="m 111.0957,43.125 c -1.26953,0 -2.28906,0.410156 -3.05859,1.230469 -0.76953,0.820312 -1.1543,1.894531 -1.1543,3.222656 0,1.257813 0.37891,2.279297 1.13672,3.064453 0.75781,0.78125 1.73829,1.171875 2.94141,1.171875 1.23438,0 2.23438,-0.404297 3,-1.212891 0.76953,-0.808593 1.15429,-1.873046 1.15429,-3.193359 0,-1.285156 -0.37109,-2.320312 -1.11328,-3.105469 C 113.26367,43.517578 112.29492,43.125 111.0957,43.125 Z M 0.15039062,43.265625 v 8.402344 H 2.0429688 v -2.894531 h 0.9023437 c 1.015625,-10e-7 1.8261719,-0.259766 2.4316406,-0.779297 0.609375,-0.523438 0.9140625,-1.207032 0.9140625,-2.050782 0,-1.785156 -1.0585938,-2.677734 -3.1757812,-2.677734 z m 12.37695338,0 -3.058594,8.402344 h 2.050781 l 0.591797,-1.869141 h 2.988281 l 0.597657,1.869141 h 2.0625 l -2.988282,-8.402344 z m 9.820312,0 v 8.402344 h 1.892578 V 48.451172 H 24.75 c 0.117187,0 0.22461,0.02539 0.322266,0.07617 0.101562,0.04687 0.197265,0.117187 0.287109,0.210937 0.09375,0.08984 0.185547,0.199219 0.275391,0.328125 0.08984,0.128906 0.183594,0.275391 0.28125,0.439453 l 1.30664,2.16211 h 2.173828 l -1.58789,-2.484375 c -0.08203,-0.128907 -0.173828,-0.259766 -0.275391,-0.392578 -0.09766,-0.136719 -0.201172,-0.263672 -0.310547,-0.38086 C 27.113281,48.292969 27,48.191406 26.882812,48.105469 c -0.117187,-0.08985 -0.238281,-0.1543 -0.363281,-0.19336 v -0.02344 c 0.285156,-0.08203 0.542969,-0.195313 0.773438,-0.339844 0.234375,-0.144531 0.433593,-0.316406 0.597656,-0.515625 0.164062,-0.199219 0.291015,-0.421875 0.380859,-0.667969 0.08984,-0.25 0.134766,-0.521484 0.134766,-0.814453 0,-1.523437 -1.019531,-2.285156 -3.058594,-2.285156 z m 10.355469,0 v 1.541016 h 2.384766 v 6.861328 h 1.898437 v -6.861328 h 2.396484 v -1.541016 z m 11.349609,0 v 8.402344 h 1.78711 v -4.617188 c 0,-0.609374 -0.01563,-1.062499 -0.04687,-1.359375 h 0.02344 c 0.07813,0.15625 0.21875,0.388672 0.421875,0.697266 l 3.462891,5.279297 h 1.910156 v -8.402344 h -1.787109 v 4.646484 c 0,0.574219 0.01563,0.958985 0.04687,1.154297 h -0.02344 C 49.71875,48.839844 49.578125,48.611328 49.425781,48.380859 l -3.333984,-5.115234 z m 13.033204,0 v 8.402344 H 62.125 v -1.535157 h -3.146484 v -1.921874 h 2.748046 v -1.535157 h -2.748046 v -1.86914 h 2.953125 v -1.541016 z m 9.9375,0 v 8.402344 h 1.892578 v -3.216797 h 0.509765 c 0.117188,0 0.22461,0.02539 0.322266,0.07617 0.101563,0.04687 0.197265,0.117187 0.287109,0.210937 0.09375,0.08984 0.185548,0.199219 0.275391,0.328125 0.08984,0.128906 0.183594,0.275391 0.28125,0.439453 l 1.306641,2.16211 h 2.173828 l -1.587891,-2.484375 c -0.08203,-0.128907 -0.173828,-0.259766 -0.275391,-0.392578 -0.09766,-0.136719 -0.201172,-0.263672 -0.310546,-0.38086 -0.109376,-0.117187 -0.222657,-0.21875 -0.339844,-0.304687 -0.117188,-0.08985 -0.238282,-0.1543 -0.363282,-0.19336 v -0.02344 c 0.285157,-0.08203 0.542969,-0.195313 0.773438,-0.339844 0.234375,-0.144531 0.433594,-0.316406 0.597656,-0.515625 0.164062,-0.199219 0.291016,-0.421875 0.38086,-0.667969 0.08984,-0.25 0.134765,-0.521484 0.134765,-0.814453 0,-1.523437 -1.019531,-2.285156 -3.058593,-2.285156 z m 18.21289,0 v 8.402344 h 1.892578 v -2.894531 h 0.902344 c 1.015625,-10e-7 1.826172,-0.259766 2.431641,-0.779297 0.609374,-0.523438 0.914062,-1.207032 0.914062,-2.050782 0,-1.785156 -1.058594,-2.677734 -3.175781,-2.677734 z m 10.921875,0 v 8.402344 h 1.892578 v -3.216797 h 0.509766 c 0.117188,0 0.224609,0.02539 0.322265,0.07617 0.101563,0.04687 0.197267,0.117187 0.28711,0.210937 0.09375,0.08984 0.185547,0.199219 0.27539,0.328125 0.08984,0.128906 0.183594,0.275391 0.28125,0.439453 l 1.306638,2.16211 h 2.17383 l -1.58789,-2.484375 c -0.082,-0.128907 -0.17382,-0.259766 -0.27539,-0.392578 -0.0977,-0.136719 -0.20117,-0.263672 -0.31055,-0.38086 -0.10937,-0.117187 -0.22265,-0.21875 -0.33984,-0.304687 -0.11719,-0.08985 -0.23828,-0.1543 -0.36328,-0.19336 v -0.02344 c 0.28515,-0.08203 0.54296,-0.195313 0.77344,-0.339844 0.23437,-0.144531 0.43359,-0.316406 0.59765,-0.515625 0.16407,-0.199219 0.29102,-0.421875 0.38086,-0.667969 0.0898,-0.25 0.13477,-0.521484 0.13477,-0.814453 0,-1.523437 -1.01953,-2.285156 -3.058597,-2.285156 z m 25.384767,0 v 4.992187 c 0,1.28125 -0.43164,1.921876 -1.29492,1.921876 -0.40234,0 -0.76563,-0.123048 -1.08985,-0.369141 v 1.775391 c 0.375,0.152344 0.78321,0.228515 1.22461,0.228515 0.98828,0 1.74219,-0.298828 2.26172,-0.896484 0.52343,-0.597657 0.78516,-1.458985 0.78516,-2.583985 v -5.068359 z m 7.26758,0 v 8.402344 h 5.03906 v -1.535157 h -3.14649 v -1.921874 h 2.74805 v -1.535157 h -2.74805 v -1.86914 h 2.95313 v -1.541016 z m 9.9375,0 v 8.402344 h 1.89257 v -4.113281 h 0.0293 c 0.10158,0.238281 0.17579,0.392577 0.22266,0.46289 l 2.44922,3.650391 h 2.39062 l -3.18164,-4.394531 2.92969,-4.007813 h -2.25586 l -2.32031,3.503906 c -0.10939,0.203126 -0.18751,0.359376 -0.23438,0.46875 h -0.0293 v -3.972656 z m 10.61328,0 v 1.541016 h 2.38476 v 6.861328 h 1.89844 v -6.861328 h 2.39649 v -1.541016 z m 11.25,0 v 4.851563 c 0,2.464844 1.14062,3.697265 3.42187,3.697265 2.35156,0 3.52735,-1.261719 3.52735,-3.785156 v -4.763672 h -1.89258 v 4.945313 c 0,1.3125 -0.52149,1.96875 -1.56445,1.96875 -1.0625,0 -1.59375,-0.679688 -1.59375,-2.039063 v -4.875 z M 24.240234,44.683594 h 0.855469 c 0.878906,0 1.318359,0.367188 1.318359,1.101562 0,0.351563 -0.125,0.646485 -0.375,0.884766 -0.246093,0.234375 -0.572265,0.351562 -0.978515,0.351562 h -0.820313 z m 44.675782,0 h 0.855468 c 0.878906,0 1.31836,0.367188 1.31836,1.101562 0,0.351563 -0.125,0.646485 -0.375,0.884766 -0.246094,0.234375 -0.572266,0.351562 -0.978516,0.351562 h -0.820312 z m 29.134765,0 h 0.855469 c 0.878905,0 1.31836,0.367188 1.31836,1.101562 0,0.351563 -0.125,0.646485 -0.375001,0.884766 -0.246094,0.234375 -0.572265,0.351562 -0.978515,0.351562 H 98.050781 Z M 2.0429688,44.71875 h 0.7441406 c 1.0078124,0 1.5117187,0.431641 1.5117187,1.294922 0,0.882812 -0.5039063,1.324219 -1.5117187,1.324219 H 2.0429688 Z m 85.0859372,0 h 0.744141 c 1.007813,0 1.511719,0.431641 1.511719,1.294922 0,0.882812 -0.503906,1.324219 -1.511719,1.324219 h -0.744141 z m 23.914064,0.03516 c 0.64453,0 1.15234,0.242187 1.52344,0.726563 0.37109,0.484374 0.55664,1.162109 0.55664,2.033203 0,0.835937 -0.19141,1.490234 -0.57422,1.96289 -0.38281,0.46875 -0.90039,0.703126 -1.55274,0.703126 -0.63281,0 -1.14453,-0.242188 -1.53515,-0.726563 -0.39062,-0.484375 -0.58594,-1.142578 -0.58594,-1.974609 0,-0.820312 0.19532,-1.478516 0.58594,-1.97461 0.39062,-0.5 0.91796,-0.75 1.58203,-0.75 z m -97.466798,0.01172 h 0.04687 c 0.02734,0.292969 0.07422,0.544922 0.140625,0.755859 l 0.902344,2.824219 h -2.150391 l 0.914063,-2.847656 c 0.07812,-0.242188 0.126951,-0.486329 0.146484,-0.732422 z" /></g>
<g
   id="g31">
	<g
   id="Layer_1-2_5_">
		<polygon
   class="st0"
   points="66,12.1 66,28.6 69.7,28.6 69.7,7.2 64.6,7.2 58.1,23.1 51.8,7.2 46.5,7.2 46.5,28.6 50,28.6     50,12.1 50.1,12.1 56.7,28.6 59.4,28.6 65.9,12.1   "
   id="polygon6" />
		<path
   class="st0"
   d="M75,6.7c-0.6,0-1.1,0.2-1.5,0.6c-0.4,0.4-0.7,0.9-0.6,1.5c0,0.6,0.2,1.1,0.6,1.5c0.4,0.4,1,0.6,1.5,0.6    c0.6,0,1.1-0.2,1.6-0.6c0.4-0.4,0.7-0.9,0.6-1.5c0-0.6-0.2-1.1-0.6-1.5C76.2,6.9,75.6,6.7,75,6.7 M76.8,13.2h-3.6v15.4h3.6    L76.8,13.2z"
   id="path8" />
		<path
   class="st0"
   d="M87.6,12.9c-1.5,0-3,0.3-4.4,1.1c-1.2,0.7-2.3,1.7-2.9,3c-0.7,1.4-1,2.9-1,4.4c0,1.4,0.3,2.8,1,4    c0.6,1.1,1.6,2,2.7,2.6c1.2,0.7,2.6,1,4,1c1.5,0.1,3-0.3,4.4-1l0,0v-3.4l-0.2,0.1c-0.5,0.4-1.1,0.7-1.8,0.9    c-0.6,0.2-1.1,0.3-1.7,0.3c-1.3,0.1-2.5-0.4-3.4-1.3c-0.9-1-1.3-2.3-1.3-3.7c-0.1-1.4,0.4-2.7,1.3-3.8c0.9-0.9,2.1-1.4,3.4-1.4    c1.2,0,2.5,0.4,3.4,1.2l0.2,0.1v-3.5l0,0c-0.5-0.3-1.1-0.5-1.7-0.6C89,13,88.3,12.9,87.6,12.9"
   id="path10" />
		<path
   class="st0"
   d="M97.7,15.9v-2.7h-3.6v15.4h3.6v-7.9c0-1.2,0.3-2.3,0.9-3.3c0.5-0.8,1.4-1.2,2.3-1.2c0.4,0,0.7,0.1,1.1,0.2    c0.3,0.1,0.6,0.2,0.8,0.3l0.2,0.1v-3.7h-0.1c-1.3-0.4-2.7-0.2-3.8,0.6C98.5,14.4,98,15.1,97.7,15.9L97.7,15.9z"
   id="path12" />
		<path
   class="st0"
   d="M111.4,12.9c-2.2-0.1-4.4,0.7-6,2.2c-1.5,1.6-2.3,3.8-2.2,6c-0.1,2.1,0.7,4.2,2.1,5.8    c1.5,1.5,3.6,2.3,5.7,2.2c2.2,0.1,4.3-0.7,5.9-2.2c1.5-1.6,2.3-3.8,2.2-6c0.1-2.1-0.6-4.2-2-5.8C115.5,13.5,113.5,12.7,111.4,12.9     M111.2,26c-1.2,0.1-2.3-0.4-3.1-1.3c-0.8-1.1-1.2-2.4-1.1-3.7c-0.1-1.4,0.3-2.7,1.1-3.8c0.8-0.9,1.9-1.4,3.1-1.3    c1.1-0.1,2.2,0.4,3,1.3c0.8,1.1,1.2,2.4,1.1,3.8c0.1,1.3-0.2,2.7-1,3.8C113.6,25.6,112.4,26.1,111.2,26"
   id="path14" />
		<path
   class="st0"
   d="M126.7,12.9c-1.5-0.1-3,0.4-4.2,1.3c-1.1,0.8-1.7,2.1-1.7,3.4c0,0.7,0.1,1.3,0.3,1.9c0.2,0.6,0.6,1,1.1,1.4    c0.7,0.5,1.4,0.9,2.2,1.3c0.6,0.2,1.3,0.5,1.8,0.9c0.3,0.2,0.6,0.4,0.8,0.7c0.2,0.3,0.2,0.6,0.2,0.9c0,1-0.8,1.5-2.4,1.5    c-0.7,0-1.4-0.1-2-0.4c-0.7-0.2-1.4-0.6-2-1l-0.2-0.1v3.5l0,0c0.6,0.3,1.3,0.5,1.9,0.6c0.7,0.1,1.4,0.2,2.1,0.2    c1.6,0.1,3.2-0.4,4.5-1.3c1.1-0.8,1.7-2.1,1.7-3.5c0-1-0.3-1.9-0.9-2.6c-0.8-0.9-1.9-1.5-3-1.9c-0.8-0.3-1.5-0.6-2.2-1.1    c-0.3-0.3-0.5-0.7-0.4-1.2c0-0.4,0.2-0.8,0.6-1.1c0.5-0.3,1-0.5,1.6-0.4c0.6,0,1.3,0.1,1.8,0.3c0.6,0.2,1.1,0.4,1.6,0.8l0.1,0.1    v-3.3h-0.1c-0.5-0.2-1.1-0.4-1.6-0.5C127.9,13,127.3,12.9,126.7,12.9"
   id="path16" />
		<path
   class="st0"
   d="M140.7,12.9c-2.2-0.1-4.4,0.7-6,2.2c-1.5,1.6-2.3,3.8-2.2,6c-0.1,2.1,0.7,4.2,2.1,5.8    c1.5,1.5,3.6,2.3,5.7,2.2c2.2,0.1,4.3-0.7,5.9-2.2c1.5-1.6,2.3-3.8,2.2-6c0.1-2.1-0.6-4.2-2-5.8C144.8,13.5,142.8,12.7,140.7,12.9     M140.5,26c-1.2,0.1-2.3-0.4-3.1-1.3c-0.8-1.1-1.2-2.4-1.1-3.7c-0.1-1.4,0.3-2.7,1.1-3.8c0.8-0.9,1.9-1.4,3.1-1.3    c1.1-0.1,2.2,0.4,3,1.3c0.8,1.1,1.2,2.4,1.1,3.8c0.1,1.3-0.2,2.7-1,3.8C142.9,25.6,141.7,26.1,140.5,26"
   id="path18" />
		<path
   class="st0"
   d="M167.6,16.2v-3H164V8.7h-0.1l-3.5,1.1h-0.1v3.5h-5.4v-1.9c-0.1-0.7,0.2-1.5,0.6-2.1c0.4-0.5,1-0.7,1.7-0.7    c0.5,0,1.1,0.1,1.6,0.4l0.1,0.1V5.9h-0.1c-0.6-0.2-1.3-0.3-2-0.3c-1,0-2,0.2-2.9,0.7c-0.8,0.5-1.5,1.2-2,2    c-0.5,0.9-0.7,1.9-0.7,2.9v2.1h-2.6v3h2.6v12.3h3.7V16.2h5.4v7.9c0,3.3,1.5,4.9,4.6,4.9c0.5,0,1-0.1,1.6-0.2    c0.4-0.1,0.8-0.2,1.1-0.4l0,0v-3l-0.1,0.1c-0.2,0.1-0.5,0.3-0.7,0.3c-0.2,0.1-0.5,0.1-0.7,0.1c-0.6,0-1.1-0.2-1.6-0.6    c-0.4-0.6-0.6-1.3-0.5-2v-7.2H167.6z"
   id="path20" />
		<rect
   class="st1"
   width="17"
   height="17"
   id="rect22" />
		<rect
   x="18.8"
   class="st2"
   width="17"
   height="17"
   id="rect24" />
		<rect
   y="18.8"
   class="st3"
   width="17"
   height="17"
   id="rect26" />
		<rect
   x="18.8"
   y="18.8"
   class="st4"
   width="17"
   height="17"
   id="rect28" />
	</g>
</g>

</svg>