<?xml version="1.0" encoding="utf-8"?>
<!-- Generator: Adobe Illustrator 22.1.0, SVG Export Plug-In . SVG Version: 6.00 Build 0)  -->
<svg version="1.1" id="Layer_1" xmlns="http://www.w3.org/2000/svg" xmlns:xlink="http://www.w3.org/1999/xlink" x="0px" y="0px"
	 viewBox="0 0 587.7 134.4" style="enable-background:new 0 0 587.7 134.4;" xml:space="preserve">
<style type="text/css">
	.st0{display:none;}
	.st1{display:inline;fill:#969696;}
	.st2{fill:none;}
	.st3{fill:#FFFFFF;}
</style>
<g id="protected_zone">
	<g class="st0">
		<path class="st1" d="M559.7,134.4h-3.3v-18.8c0-1.5,0.1-3.3,0.3-5.4h-0.1c-0.3,1.3-0.6,2.2-0.8,2.7l-9.6,21.5h-1.6L535,113
			c-0.3-0.6-0.6-1.6-0.8-2.9h-0.1c0.1,1.1,0.2,2.9,0.2,5.5v18.8h-3.2v-28h4.3l8.6,19.5c0.7,1.5,1.1,2.6,1.3,3.4h0.1
			c0.6-1.5,1-2.7,1.3-3.4l8.8-19.5h4.1L559.7,134.4L559.7,134.4z"/>
		<path class="st1" d="M559.7,106.4v-3.3h18.8c1.5,0,3.3,0.1,5.4,0.3v-0.1c-1.3-0.3-2.2-0.6-2.7-0.8l-21.5-9.6v-1.6l21.4-9.6
			c0.6-0.3,1.6-0.6,2.9-0.8v-0.1c-1.1,0.1-2.9,0.2-5.5,0.2h-18.8v-3.2h28v4.3l-19.5,8.6c-1.5,0.7-2.6,1.1-3.4,1.3v0.1
			c1.5,0.6,2.7,1,3.4,1.3l19.5,8.8v4.1L559.7,106.4L559.7,106.4z"/>
		<path class="st1" d="M0,56.6v-3.3h18.8c1.5,0,3.3,0.1,5.4,0.3v-0.1c-1.3-0.3-2.2-0.6-2.7-0.8L0,43.1v-1.6l21.4-9.6
			c0.6-0.3,1.6-0.6,2.9-0.8V31c-1.1,0.1-2.9,0.2-5.5,0.2H0V28h28v4.3L8.5,40.9C7,41.6,5.9,42,5.1,42.2v0.1c1.5,0.6,2.7,1,3.4,1.3
			L28,52.5v4.1H0z"/>
		<path class="st1" d="M56.6,28h-3.3V9.2c0-1.5,0.1-3.3,0.3-5.4h-0.1c-0.3,1.3-0.6,2.2-0.8,2.7L43.1,28h-1.6L31.9,6.6
			C31.6,6,31.3,5,31.1,3.7H31c0.1,1.1,0.2,2.9,0.2,5.5V28H28V0h4.3l8.6,19.5c0.7,1.5,1.1,2.6,1.3,3.4h0.1c0.6-1.5,1-2.7,1.3-3.4
			L52.5,0h4.1V28z"/>
	</g>
	<rect y="0" class="st2" width="587.7" height="134.4"/>
</g>
<g id="logo">
	<g>
		<g>
			<path class="st3" d="M432.4,104.8c-2.1,1.1-4.6,1.6-7.7,1.6c-4,0-7.2-1.3-9.6-3.8s-3.6-5.9-3.6-10.1c0-4.5,1.3-8.1,4-10.9
				s6.1-4.1,10.3-4.1c2.7,0,4.9,0.4,6.6,1.2v3.4c-2-1.1-4.2-1.7-6.6-1.7c-3.2,0-5.8,1.1-7.8,3.2s-3,5-3,8.6c0,3.4,0.9,6.1,2.8,8.2
				s4.3,3,7.4,3c2.8,0,5.2-0.6,7.3-1.9L432.4,104.8L432.4,104.8z"/>
			<path class="st3" d="M453.7,96.7h-14.1c0.1,2.2,0.7,3.9,1.8,5.2s2.7,1.8,4.7,1.8c2.3,0,4.3-0.7,6.2-2.2v3c-1.8,1.3-4.1,1.9-7,1.9
				c-2.8,0-5-0.9-6.7-2.7s-2.4-4.4-2.4-7.7c0-3.1,0.9-5.6,2.6-7.6s4-2.9,6.6-2.9s4.6,0.8,6.1,2.5s2.1,4,2.1,7.1L453.7,96.7
				L453.7,96.7z M450.5,94c0-1.8-0.5-3.3-1.3-4.3s-2.1-1.5-3.7-1.5c-1.5,0-2.8,0.5-3.8,1.6s-1.7,2.5-2,4.2
				C439.7,94,450.5,94,450.5,94z"/>
			<path class="st3" d="M475.2,105.9H472V94.5c0-4.2-1.5-6.4-4.6-6.4c-1.6,0-2.9,0.6-4,1.8s-1.6,2.7-1.6,4.6v11.4h-3.2v-20h3.2v3.3
				h0.1c1.5-2.5,3.7-3.8,6.6-3.8c2.2,0,3.9,0.7,5,2.1s1.7,3.5,1.7,6.1V105.9z"/>
			<path class="st3" d="M490.5,105.7c-0.8,0.4-1.8,0.6-3,0.6c-3.5,0-5.3-2-5.3-5.9V88.7h-3.4V86h3.4v-4.9l3.2-1V86h5v2.7h-5V100
				c0,1.3,0.2,2.3,0.7,2.9s1.2,0.9,2.3,0.9c0.8,0,1.5-0.2,2.1-0.7L490.5,105.7L490.5,105.7z"/>
			<path class="st3" d="M505.2,89.2c-0.6-0.4-1.4-0.6-2.4-0.6c-1.4,0-2.5,0.6-3.4,1.9s-1.4,3-1.4,5.3V106h-3.2V86h3.2v4.1h0.1
				c0.5-1.4,1.2-2.5,2.1-3.3s2-1.2,3.1-1.2c0.8,0,1.5,0.1,1.9,0.3L505.2,89.2L505.2,89.2z"/>
			<path class="st3" d="M524.9,105.9h-3.2v-3.2h-0.1c-1.3,2.4-3.4,3.6-6.2,3.6c-4.8,0-7.1-2.8-7.1-8.5v-12h3.2v11.4
				c0,4.2,1.6,6.3,4.8,6.3c1.6,0,2.8-0.6,3.9-1.7s1.5-2.7,1.5-4.5V85.9h3.2L524.9,105.9L524.9,105.9z"/>
			<path class="st3" d="M559.7,105.9h-3.2V94.5c0-2.2-0.3-3.8-1-4.8s-1.8-1.5-3.4-1.5c-1.4,0-2.5,0.6-3.5,1.9s-1.4,2.7-1.4,4.5V106
				H544V94.1c0-3.9-1.5-5.9-4.6-5.9c-1.4,0-2.6,0.6-3.5,1.8s-1.4,2.7-1.4,4.6V106h-3.2V86h3.2v3.1h0.1c1.4-2.4,3.5-3.6,6.2-3.6
				c1.4,0,2.6,0.4,3.6,1.1s1.7,1.8,2.1,3c1.5-2.8,3.7-4.1,6.6-4.1c4.4,0,6.6,2.7,6.6,8.1L559.7,105.9L559.7,105.9z"/>
		</g>
		<g>
			<path class="st3" d="M251.4,80.9h-8.1v25H240v-25h-8.1v-3h19.4v3H251.4z"/>
			<path class="st3" d="M262.3,89.2c-0.6-0.4-1.4-0.6-2.4-0.6c-1.4,0-2.5,0.6-3.4,1.9s-1.4,3-1.4,5.3V106h-3.2V86h3.2v4.1h0.1
				c0.5-1.4,1.2-2.5,2.1-3.3s2-1.2,3.1-1.2c0.8,0,1.5,0.1,1.9,0.3L262.3,89.2L262.3,89.2z"/>
			<path class="st3" d="M281.9,96.7h-14.1c0.1,2.2,0.7,3.9,1.8,5.2c1.1,1.2,2.7,1.8,4.7,1.8c2.3,0,4.3-0.7,6.2-2.2v3
				c-1.8,1.3-4.1,1.9-7,1.9c-2.8,0-5-0.9-6.7-2.7c-1.6-1.8-2.4-4.4-2.4-7.7c0-3.1,0.9-5.6,2.6-7.6c1.8-2,4-2.9,6.6-2.9
				s4.6,0.8,6.1,2.5c1.4,1.7,2.1,4,2.1,7.1L281.9,96.7L281.9,96.7z M278.6,94c0-1.8-0.5-3.3-1.3-4.3s-2.1-1.5-3.7-1.5
				c-1.5,0-2.8,0.5-3.8,1.6s-1.7,2.5-2,4.2C267.8,94,278.6,94,278.6,94z"/>
			<path class="st3" d="M303.3,105.9h-3.2V94.5c0-4.2-1.5-6.4-4.6-6.4c-1.6,0-2.9,0.6-4,1.8c-1,1.2-1.6,2.7-1.6,4.6v11.4h-3.2v-20
				h3.2v3.3h0.1c1.5-2.5,3.7-3.8,6.6-3.8c2.2,0,3.9,0.7,5,2.1s1.7,3.5,1.7,6.1V105.9z"/>
			<path class="st3" d="M325.4,96.7h-14.1c0.1,2.2,0.7,3.9,1.8,5.2s2.7,1.8,4.7,1.8c2.3,0,4.3-0.7,6.2-2.2v3c-1.8,1.3-4.1,1.9-7,1.9
				c-2.8,0-5-0.9-6.7-2.7s-2.4-4.4-2.4-7.7c0-3.1,0.9-5.6,2.6-7.6s4-2.9,6.6-2.9s4.6,0.8,6.1,2.5s2.1,4,2.1,7.1L325.4,96.7
				L325.4,96.7z M322.1,94c0-1.8-0.5-3.3-1.3-4.3s-2.1-1.5-3.7-1.5c-1.5,0-2.8,0.5-3.8,1.6s-1.7,2.5-2,4.2
				C311.3,94,322.1,94,322.1,94z M321.6,75.7l-5.1,6.4H314l4.4-6.4H321.6z"/>
			<path class="st3" d="M340.7,89.2c-0.6-0.4-1.4-0.6-2.4-0.6c-1.4,0-2.5,0.6-3.4,1.9s-1.4,3-1.4,5.3V106h-3.2V86h3.2v4.1h0.1
				c0.5-1.4,1.2-2.5,2.1-3.3s2-1.2,3.1-1.2c0.8,0,1.5,0.1,1.9,0.3L340.7,89.2L340.7,89.2z"/>
			<path class="st3" d="M343,105.2v-3.4c1.7,1.3,3.7,1.9,5.8,1.9c2.8,0,4.2-0.9,4.2-2.8c0-0.5-0.1-1-0.4-1.4s-0.6-0.7-1-1
				s-0.9-0.5-1.4-0.8s-1.1-0.5-1.8-0.7c-0.9-0.4-1.7-0.7-2.3-1.1s-1.2-0.8-1.7-1.2s-0.8-1-1-1.5s-0.3-1.2-0.3-2
				c0-0.9,0.2-1.8,0.6-2.5s1-1.3,1.7-1.8s1.5-0.9,2.5-1.1s1.9-0.4,2.8-0.4c1.7,0,3.3,0.3,4.6,0.9v3.2c-1.5-1-3.2-1.4-5.1-1.4
				c-0.6,0-1.1,0.1-1.6,0.2s-0.9,0.3-1.2,0.6s-0.6,0.5-0.8,0.9s-0.3,0.7-0.3,1.1c0,0.5,0.1,1,0.3,1.3s0.5,0.7,0.8,0.9
				s0.8,0.5,1.3,0.7s1.1,0.5,1.8,0.7c0.9,0.3,1.7,0.7,2.4,1s1.3,0.8,1.8,1.2s0.9,1,1.1,1.6s0.4,1.3,0.4,2.1c0,1-0.2,1.8-0.7,2.6
				s-1,1.3-1.7,1.8s-1.6,0.8-2.5,1.1s-1.9,0.4-3,0.4C346.3,106.4,344.5,106,343,105.2z"/>
			<path class="st3" d="M377.7,105.9h-4.4l-8.8-9.6h-0.2v9.6h-3.2V76.3h3.2v18.8h0.1l8.4-9.2h4.2l-9.3,9.6L377.7,105.9z"/>
			<path class="st3" d="M397.1,96.7H383c0.1,2.2,0.7,3.9,1.8,5.2s2.7,1.8,4.7,1.8c2.3,0,4.3-0.7,6.2-2.2v3c-1.8,1.3-4.1,1.9-7,1.9
				c-2.8,0-5-0.9-6.7-2.7s-2.4-4.4-2.4-7.7c0-3.1,0.9-5.6,2.6-7.6s4-2.9,6.6-2.9s4.6,0.8,6.1,2.5s2.1,4,2.1,7.1L397.1,96.7
				L397.1,96.7z M393.8,94c0-1.8-0.5-3.3-1.3-4.3s-2.1-1.5-3.7-1.5c-1.5,0-2.8,0.5-3.8,1.6s-1.7,2.5-2,4.2C383,94,393.8,94,393.8,94
				z M393.3,75.7l-5.1,6.4h-2.5l4.4-6.4H393.3z"/>
		</g>
		<g>
			<path class="st3" d="M28,104.8v-3.9c0.4,0.4,1,0.7,1.6,1.1c0.6,0.3,1.3,0.6,2,0.8c0.7,0.2,1.4,0.4,2.1,0.5s1.3,0.2,1.9,0.2
				c2,0,3.5-0.4,4.5-1.1s1.5-1.8,1.5-3.2c0-0.8-0.2-1.4-0.5-2s-0.8-1.1-1.4-1.5s-1.3-0.9-2.1-1.3s-1.7-0.9-2.6-1.3
				c-1-0.5-1.9-1-2.7-1.5s-1.6-1.1-2.2-1.7s-1.1-1.3-1.5-2.1c-0.4-0.8-0.5-1.7-0.5-2.7c0-1.3,0.3-2.4,0.8-3.3
				c0.6-0.9,1.3-1.7,2.2-2.3c0.9-0.6,1.9-1.1,3.1-1.4c1.2-0.3,2.4-0.4,3.6-0.4c2.8,0,4.8,0.3,6,1v3.4c-1.7-1.1-3.8-1.7-6.4-1.7
				c-0.7,0-1.4,0.1-2.1,0.2c-0.7,0.1-1.4,0.4-1.9,0.7c-0.6,0.3-1,0.8-1.4,1.3s-0.5,1.2-0.5,2c0,0.7,0.1,1.3,0.4,1.9
				c0.3,0.5,0.7,1,1.2,1.4s1.2,0.8,1.9,1.3c0.7,0.4,1.6,0.8,2.6,1.3s2,1,2.9,1.6s1.7,1.2,2.4,1.8c0.7,0.7,1.2,1.4,1.6,2.2
				c0.4,0.8,0.6,1.7,0.6,2.8c0,1.4-0.3,2.5-0.8,3.5s-1.3,1.7-2.2,2.3s-2,1-3.2,1.3s-2.5,0.4-3.8,0.4c-0.4,0-1,0-1.6-0.1
				c-0.7-0.1-1.3-0.2-2-0.3c-0.7-0.1-1.3-0.3-1.9-0.5S28.3,105,28,104.8z"/>
			<path class="st3" d="M58.1,105.7c-0.8,0.4-1.8,0.6-3,0.6c-3.5,0-5.3-2-5.3-5.9V88.7h-3.4V86h3.4v-4.9l3.2-1V86h5v2.7h-5V100
				c0,1.3,0.2,2.3,0.7,2.9s1.2,0.9,2.3,0.9c0.8,0,1.5-0.2,2.1-0.7V105.7z"/>
			<path class="st3" d="M78.5,105.9h-3.2v-3.2l0,0c-1.3,2.4-3.4,3.6-6.2,3.6c-4.8,0-7.1-2.8-7.1-8.5v-12h3.2v11.4
				c0,4.2,1.6,6.3,4.8,6.3c1.6,0,2.8-0.6,3.9-1.7c1-1.2,1.5-2.7,1.5-4.5V85.9h3.2v20H78.5z"/>
			<path class="st3" d="M102.1,105.9h-3.2v-3.4h-0.1c-1.5,2.6-3.8,3.9-6.9,3.9c-2.5,0-4.5-0.9-6-2.7s-2.3-4.2-2.3-7.3
				c0-3.3,0.8-6,2.5-7.9c1.7-2,3.9-3,6.7-3c2.7,0,4.7,1.1,6,3.2h0.1V76.3h3.2C102.1,76.3,102.1,105.9,102.1,105.9z M98.9,96.9V94
				c0-1.6-0.5-3-1.6-4.1s-2.4-1.7-4.1-1.7c-2,0-3.5,0.7-4.6,2.1s-1.7,3.4-1.7,5.9c0,2.3,0.5,4.1,1.6,5.5s2.5,2,4.3,2
				s3.2-0.6,4.3-1.9S98.9,98.9,98.9,96.9z"/>
			<path class="st3" d="M124.6,96.7h-14.1c0.1,2.2,0.7,3.9,1.8,5.2c1.1,1.2,2.7,1.8,4.7,1.8c2.3,0,4.3-0.7,6.2-2.2v3
				c-1.8,1.3-4.1,1.9-7,1.9c-2.8,0-5-0.9-6.7-2.7c-1.6-1.8-2.4-4.4-2.4-7.7c0-3.1,0.9-5.6,2.6-7.6c1.8-2,4-2.9,6.6-2.9
				s4.6,0.8,6.1,2.5c1.4,1.7,2.1,4,2.1,7.1v1.6C124.5,96.7,124.6,96.7,124.6,96.7z M121.4,94c0-1.8-0.5-3.3-1.3-4.3
				s-2.1-1.5-3.7-1.5c-1.5,0-2.8,0.5-3.8,1.6s-1.7,2.5-2,4.2C110.6,94,121.4,94,121.4,94z"/>
			<path class="st3" d="M146.1,105.9h-3.2V94.5c0-4.2-1.5-6.4-4.6-6.4c-1.6,0-2.9,0.6-4,1.8c-1,1.2-1.6,2.7-1.6,4.6v11.4h-3.2v-20
				h3.2v3.3h0.1c1.5-2.5,3.7-3.8,6.6-3.8c2.2,0,3.9,0.7,5,2.1c1.2,1.4,1.7,3.5,1.7,6.1V105.9z"/>
			<path class="st3" d="M161.4,105.7c-0.8,0.4-1.8,0.6-3,0.6c-3.5,0-5.3-2-5.3-5.9V88.7h-3.4V86h3.4v-4.9l3.2-1V86h5v2.7h-5V100
				c0,1.3,0.2,2.3,0.7,2.9s1.2,0.9,2.3,0.9c0.8,0,1.5-0.2,2.1-0.7V105.7z"/>
			<path class="st3" d="M164.5,105.2v-3.4c1.7,1.3,3.7,1.9,5.8,1.9c2.8,0,4.2-0.9,4.2-2.8c0-0.5-0.1-1-0.4-1.4c-0.2-0.4-0.6-0.7-1-1
				s-0.9-0.5-1.4-0.8c-0.6-0.2-1.1-0.5-1.8-0.7c-0.9-0.4-1.7-0.7-2.3-1.1c-0.7-0.4-1.2-0.8-1.7-1.2s-0.8-1-1-1.5
				c-0.2-0.6-0.3-1.2-0.3-2c0-0.9,0.2-1.8,0.6-2.5s1-1.3,1.7-1.8s1.5-0.9,2.5-1.1s1.9-0.4,2.8-0.4c1.7,0,3.3,0.3,4.6,0.9v3.2
				c-1.5-1-3.2-1.4-5.1-1.4c-0.6,0-1.1,0.1-1.6,0.2s-0.9,0.3-1.2,0.6c-0.3,0.2-0.6,0.5-0.8,0.9c-0.2,0.3-0.3,0.7-0.3,1.1
				c0,0.5,0.1,1,0.3,1.3c0.2,0.4,0.5,0.7,0.8,0.9c0.4,0.3,0.8,0.5,1.3,0.7s1.1,0.5,1.8,0.7c0.9,0.3,1.7,0.7,2.4,1s1.3,0.8,1.8,1.2
				c0.5,0.4,0.9,1,1.1,1.6c0.3,0.6,0.4,1.3,0.4,2.1c0,1-0.2,1.8-0.7,2.6c-0.4,0.7-1,1.3-1.7,1.8s-1.6,0.8-2.5,1.1
				c-1,0.2-1.9,0.4-3,0.4C167.8,106.4,166,106,164.5,105.2z"/>
			<path class="st3" d="M199.3,105.9h-4.5l-8.8-9.6h-0.1v9.6h-3.2V76.3h3.2v18.8h0.1l8.4-9.2h4.2l-9.3,9.6L199.3,105.9z"/>
			<path class="st3" d="M218.6,96.7h-14.1c0.1,2.2,0.7,3.9,1.8,5.2c1.1,1.2,2.7,1.8,4.7,1.8c2.3,0,4.3-0.7,6.2-2.2v3
				c-1.8,1.3-4.1,1.9-7,1.9c-2.8,0-5-0.9-6.7-2.7c-1.6-1.8-2.4-4.4-2.4-7.7c0-3.1,0.9-5.6,2.6-7.6c1.8-2,4-2.9,6.6-2.9
				s4.6,0.8,6.1,2.5c1.4,1.7,2.1,4,2.1,7.1L218.6,96.7L218.6,96.7z M215.3,94c0-1.8-0.5-3.3-1.3-4.3s-2.1-1.5-3.7-1.5
				c-1.5,0-2.8,0.5-3.8,1.6s-1.7,2.5-2,4.2C204.5,94,215.3,94,215.3,94z M214.8,75.7l-5.1,6.4h-2.5l4.4-6.4H214.8z"/>
		</g>
	</g>
	<g>
		<path class="st3" d="M57.8,57.9h-3.3V39.1c0-1.5,0.1-3.3,0.3-5.4h-0.1c-0.3,1.3-0.6,2.2-0.8,2.7l-9.6,21.5h-1.6l-9.6-21.4
			c-0.3-0.6-0.6-1.6-0.8-2.9l0,0c0.1,1.1,0.2,2.9,0.2,5.5v18.8h-3.2v-28h4.3l8.6,19.5c0.7,1.5,1.1,2.6,1.3,3.4h0.1
			c0.6-1.5,1-2.7,1.3-3.4l8.8-19.5h4.1C57.8,29.9,57.8,57.9,57.8,57.9z"/>
		<path class="st3" d="M66.4,32.9c-0.6,0-1.1-0.2-1.5-0.6s-0.6-0.9-0.6-1.5s0.2-1.1,0.6-1.5s0.9-0.6,1.5-0.6s1.1,0.2,1.5,0.6
			s0.6,0.9,0.6,1.5s-0.2,1.1-0.6,1.5S67,32.9,66.4,32.9z M68,57.9h-3.2v-20H68V57.9z"/>
		<path class="st3" d="M88.1,57c-1.5,0.9-3.4,1.4-5.5,1.4c-2.9,0-5.2-0.9-6.9-2.8c-1.8-1.9-2.6-4.3-2.6-7.2c0-3.3,0.9-5.9,2.8-7.9
			s4.4-3,7.6-3c1.8,0,3.3,0.3,4.6,1v3.3c-1.5-1-3.1-1.6-4.8-1.6c-2,0-3.7,0.7-5,2.2s-2,3.4-2,5.8c0,2.3,0.6,4.2,1.8,5.5s2.9,2,5,2
			c1.7,0,3.4-0.6,4.9-1.7L88.1,57L88.1,57z"/>
		<path class="st3" d="M103.4,41.2c-0.6-0.4-1.4-0.6-2.4-0.6c-1.4,0-2.5,0.6-3.4,1.9s-1.4,3-1.4,5.3V58H93V38h3.2v4.1h0.1
			c0.5-1.4,1.2-2.5,2.1-3.3s2-1.2,3.1-1.2c0.8,0,1.5,0.1,1.9,0.3C103.4,37.9,103.4,41.2,103.4,41.2z"/>
		<path class="st3" d="M122.7,40.3c-1.7-1.9-4-2.8-7-2.8c-3.1,0-5.5,0.9-7.4,2.8c-1.9,1.9-2.8,4.5-2.8,7.9c0,3.1,0.8,5.5,2.6,7.4
			c1.8,1.9,4.1,2.8,7.1,2.8s5.5-1,7.3-2.8c1.8-2,2.7-4.5,2.7-7.7S124.4,42.1,122.7,40.3z M120.2,53.8c-1.1,1.3-2.7,2-4.8,2
			c-2.1,0-3.7-0.7-4.9-2.1c-1.2-1.4-1.8-3.2-1.8-5.6c0-2.5,0.6-4.4,1.8-5.8c1.2-1.4,2.8-2.1,4.9-2.1s3.7,0.7,4.8,2.1
			c1.1,1.4,1.7,3.3,1.7,5.8S121.3,52.5,120.2,53.8z"/>
		<path class="st3" d="M129.1,57.2v-3.4c1.7,1.3,3.7,1.9,5.8,1.9c2.8,0,4.2-0.9,4.2-2.8c0-0.5-0.1-1-0.4-1.4c-0.2-0.4-0.6-0.7-1-1
			s-0.9-0.5-1.4-0.8c-0.6-0.2-1.1-0.5-1.8-0.7c-0.9-0.4-1.7-0.7-2.3-1.1c-0.7-0.4-1.2-0.8-1.7-1.2s-0.8-1-1-1.5
			c-0.2-0.6-0.3-1.2-0.3-2c0-0.9,0.2-1.8,0.6-2.5s1-1.3,1.7-1.8s1.5-0.9,2.5-1.1s1.9-0.4,2.8-0.4c1.7,0,3.3,0.3,4.6,0.9v3.2
			c-1.5-1-3.2-1.4-5.1-1.4c-0.6,0-1.1,0.1-1.6,0.2c-0.5,0.1-0.9,0.3-1.2,0.6c-0.3,0.2-0.6,0.5-0.8,0.9c-0.2,0.3-0.3,0.7-0.3,1.1
			c0,0.5,0.1,1,0.3,1.3c0.2,0.4,0.5,0.7,0.8,0.9c0.4,0.3,0.8,0.5,1.3,0.7s1.1,0.5,1.8,0.7c0.9,0.3,1.7,0.7,2.4,1s1.3,0.8,1.8,1.2
			s0.9,1,1.1,1.6c0.3,0.6,0.4,1.3,0.4,2.1c0,1-0.2,1.8-0.7,2.6c-0.4,0.7-1,1.3-1.7,1.8s-1.6,0.8-2.5,1.1c-1,0.2-1.9,0.4-3,0.4
			C132.4,58.4,130.6,58,129.1,57.2z"/>
		<path class="st3" d="M155.6,58.4c-3,0-5.3-0.9-7.1-2.8c-1.8-1.9-2.6-4.3-2.6-7.4c0-3.4,0.9-6,2.8-7.9s4.3-2.8,7.4-2.8
			c3,0,5.3,0.9,7,2.8c1.7,1.8,2.5,4.4,2.5,7.6c0,3.2-0.9,5.7-2.7,7.7C161.1,57.4,158.7,58.4,155.6,58.4z M155.9,40.2
			c-2.1,0-3.7,0.7-4.9,2.1c-1.2,1.4-1.8,3.3-1.8,5.8c0,2.4,0.6,4.2,1.8,5.6s2.8,2.1,4.9,2.1c2.1,0,3.7-0.7,4.8-2s1.7-3.2,1.7-5.7
			s-0.6-4.4-1.7-5.8S157.9,40.2,155.9,40.2z"/>
		<path class="st3" d="M180.6,31.1c-0.6-0.4-1.3-0.5-2.1-0.5c-2.2,0-3.4,1.4-3.4,4.2v3.1h4.7v2.7h-4.7v17.3h-3.2V40.7h-3.4V38h3.4
			v-3.2c0-2.1,0.6-3.8,1.8-5s2.7-1.8,4.5-1.8c1,0,1.8,0.1,2.3,0.4L180.6,31.1L180.6,31.1z"/>
		<path class="st3" d="M192.5,57.7c-0.8,0.4-1.8,0.6-3,0.6c-3.5,0-5.3-2-5.3-5.9V40.7h-3.4V38h3.4v-4.9l3.2-1V38h5v2.7h-5V52
			c0,1.3,0.2,2.3,0.7,2.9c0.5,0.6,1.2,0.9,2.3,0.9c0.8,0,1.5-0.2,2.1-0.7V57.7z"/>
	</g>
</g>
</svg>
