<?xml version="1.0" encoding="utf-8"?>
<!-- Generator: Adobe Illustrator 22.1.0, SVG Export Plug-In . SVG Version: 6.00 Build 0)  -->
<svg version="1.1" id="Layer_1" xmlns="http://www.w3.org/2000/svg" xmlns:xlink="http://www.w3.org/1999/xlink" x="0px" y="0px"
	 viewBox="0 0 220.5 134.5" style="enable-background:new 0 0 220.5 134.5;" xml:space="preserve">
<style type="text/css">
	.st0{display:none;}
	.st1{display:inline;fill:#969696;}
	.st2{fill:none;}
	.st3{fill:#FFFFFF;}
</style>
<g id="protected_zone">
	<g class="st0">
		<path class="st1" d="M192.5,134.5h-3.3v-18.8c0-1.5,0.1-3.3,0.3-5.4h-0.1c-0.3,1.3-0.6,2.2-0.8,2.7l-9.6,21.5h-1.6l-9.6-21.4
			c-0.3-0.6-0.6-1.6-0.8-2.9h0c0.1,1.1,0.2,2.9,0.2,5.5v18.8H164v-28h4.3l8.6,19.5c0.7,1.5,1.1,2.6,1.3,3.4h0.1
			c0.6-1.5,1-2.7,1.3-3.4l8.8-19.5h4.1L192.5,134.5L192.5,134.5z"/>
		<path class="st1" d="M192.5,106.5v-3.3h18.8c1.5,0,3.3,0.1,5.4,0.3v-0.1c-1.3-0.3-2.2-0.6-2.7-0.8L192.5,93v-1.6l21.4-9.6
			c0.6-0.3,1.6-0.6,2.9-0.8l0,0c-1.1,0.1-2.9,0.2-5.5,0.2h-18.8V78h28v4.3L201,90.9c-1.5,0.7-2.6,1.1-3.4,1.3v0.1
			c1.5,0.6,2.7,1,3.4,1.3l19.5,8.8v4.1C220.5,106.5,192.5,106.5,192.5,106.5z"/>
		<path class="st1" d="M0,56.6v-3.3h18.8c1.5,0,3.3,0.1,5.4,0.3v-0.1c-1.3-0.3-2.2-0.6-2.7-0.8L0,43.1v-1.6l21.4-9.6
			c0.6-0.3,1.6-0.6,2.9-0.8V31c-1.1,0.1-2.9,0.2-5.5,0.2H0V28h28v4.3L8.5,40.9C7,41.6,5.9,42,5.1,42.2v0.1c1.5,0.6,2.7,1,3.4,1.3
			L28,52.5v4.1H0z"/>
		<path class="st1" d="M56.6,28h-3.3V9.2c0-1.5,0.1-3.3,0.3-5.4h-0.1c-0.3,1.3-0.6,2.2-0.8,2.7L43.1,28h-1.6L31.9,6.6
			C31.6,6,31.3,5,31.1,3.7H31c0.1,1.1,0.2,2.9,0.2,5.5V28H28V0h4.3l8.6,19.5c0.7,1.5,1.1,2.6,1.3,3.4h0.1c0.6-1.5,1-2.7,1.3-3.4
			L52.5,0h4.1V28z"/>
	</g>
	<rect y="0" class="st2" width="220.5" height="134.5"/>
</g>
<g id="logo">
	<g>
		<path class="st3" d="M28,104.9V101c0.4,0.4,1,0.7,1.6,1.1c0.6,0.3,1.3,0.6,2,0.8c0.7,0.2,1.4,0.4,2.1,0.5s1.3,0.2,1.9,0.2
			c2,0,3.5-0.4,4.5-1.1s1.5-1.8,1.5-3.2c0-0.8-0.2-1.4-0.5-2s-0.8-1.1-1.4-1.5s-1.3-0.9-2.1-1.3s-1.7-1-2.6-1.5
			c-1-0.5-1.9-1-2.7-1.5s-1.6-1.1-2.2-1.7s-1.1-1.3-1.5-2.1C28.2,87,28,86.1,28,85.1c0-1.3,0.3-2.4,0.8-3.3c0.6-0.9,1.3-1.7,2.2-2.3
			c0.9-0.6,1.9-1.1,3.1-1.4c1.2-0.3,2.4-0.4,3.6-0.4c2.8,0,4.8,0.3,6,1v3.7c-1.7-1.1-3.8-1.7-6.4-1.7c-0.7,0-1.4,0.1-2.1,0.2
			c-0.7,0.1-1.4,0.4-1.9,0.7c-0.6,0.3-1,0.8-1.4,1.3s-0.5,1.2-0.5,2c0,0.7,0.1,1.3,0.4,1.9c0.3,0.5,0.7,1,1.2,1.4s1.2,0.8,1.9,1.3
			c0.7,0.4,1.6,0.8,2.6,1.3s2,1,2.9,1.6s1.7,1.2,2.4,1.8c0.7,0.7,1.2,1.4,1.6,2.2C44.8,97,45,97.9,45,99c0,1.4-0.3,2.5-0.8,3.5
			s-1.3,1.7-2.2,2.3s-2,1-3.2,1.3s-2.5,0.4-3.8,0.4c-0.4,0-1,0-1.6-0.1c-0.7-0.1-1.3-0.2-2-0.3c-0.7-0.1-1.3-0.3-1.9-0.5
			S28.4,105.2,28,104.9z"/>
		<path class="st3" d="M67.1,81H59v25h-3.3V81h-8.1v-3H67L67.1,81L67.1,81z"/>
		<path class="st3" d="M88.7,104.9c-2.1,1.1-4.6,1.6-7.7,1.6c-4,0-7.2-1.3-9.6-3.8c-2.4-2.6-3.6-5.9-3.6-10.1c0-4.5,1.3-8.1,4-10.9
			s6.1-4.1,10.3-4.1c2.7,0,4.9,0.4,6.6,1.2v3.5c-2-1.1-4.2-1.7-6.6-1.7c-3.2,0-5.8,1.1-7.8,3.2s-3,5-3,8.6c0,3.4,0.9,6.1,2.8,8.2
			c1.9,2,4.3,3,7.4,3c2.8,0,5.2-0.6,7.3-1.9v3.2H88.7z"/>
	</g>
	<g>
		<path class="st3" d="M57.9,58h-3.3V39.3c0-1.5,0.1-3.3,0.3-5.4h-0.1c-0.3,1.3-0.6,2.2-0.8,2.7L44.4,58h-1.6l-9.6-21.4
			c-0.3-0.6-0.6-1.6-0.8-2.9h-0.1c0.1,1.1,0.2,2.9,0.2,5.5V58h-3.2V30h4.3l8.6,19.5c0.7,1.5,1.1,2.6,1.3,3.4h0.1
			c0.6-1.5,1-2.7,1.3-3.4L53.8,30h4.1C57.9,30,57.9,58,57.9,58z"/>
		<path class="st3" d="M66.4,33c-0.6,0-1.1-0.2-1.5-0.6c-0.4-0.4-0.6-0.9-0.6-1.5s0.2-1.1,0.6-1.5s0.9-0.6,1.5-0.6s1.1,0.2,1.5,0.6
			s0.6,0.9,0.6,1.5s-0.2,1.1-0.6,1.5S67,33,66.4,33z M68,58h-3.2V38H68V58z"/>
		<path class="st3" d="M88.1,57.1c-1.5,0.9-3.4,1.4-5.5,1.4c-2.9,0-5.2-0.9-6.9-2.8c-1.8-1.9-2.6-4.3-2.6-7.2c0-3.3,0.9-5.9,2.8-7.9
			s4.4-3,7.6-3c1.8,0,3.3,0.3,4.6,1v3.3c-1.5-1-3.1-1.6-4.8-1.6c-2,0-3.7,0.7-5,2.2s-2,3.4-2,5.8c0,2.3,0.6,4.2,1.8,5.5s2.9,2,5,2
			c1.7,0,3.4-0.6,4.9-1.7L88.1,57.1L88.1,57.1z"/>
		<path class="st3" d="M103.4,41.3c-0.6-0.4-1.4-0.6-2.4-0.6c-1.4,0-2.5,0.6-3.4,1.9s-1.4,3-1.4,5.3V58H93V38h3.2v4.1h0.1
			c0.5-1.4,1.2-2.5,2.1-3.3s2-1.2,3.1-1.2c0.8,0,1.5,0.1,1.9,0.3C103.4,37.9,103.4,41.3,103.4,41.3z"/>
		<path class="st3" d="M115.2,58.5c-3,0-5.3-0.9-7.1-2.8c-1.8-1.9-2.6-4.3-2.6-7.4c0-3.4,0.9-6,2.8-7.9s4.3-2.8,7.4-2.8
			c3,0,5.3,0.9,7,2.8c1.7,1.8,2.5,4.4,2.5,7.6c0,3.2-0.9,5.7-2.7,7.7C120.7,57.6,118.3,58.5,115.2,58.5z M115.5,40.3
			c-2.1,0-3.7,0.7-4.9,2.1c-1.2,1.4-1.8,3.3-1.8,5.8c0,2.4,0.6,4.2,1.8,5.6s2.8,2.1,4.9,2.1s3.7-0.7,4.8-2s1.7-3.2,1.7-5.7
			s-0.6-4.4-1.7-5.8S117.5,40.3,115.5,40.3z"/>
		<path class="st3" d="M129.1,57.3v-3.4c1.7,1.3,3.7,1.9,5.8,1.9c2.8,0,4.2-0.9,4.2-2.8c0-0.5-0.1-1-0.4-1.4c-0.2-0.4-0.6-0.7-1-1
			s-0.9-0.5-1.4-0.8c-0.6-0.2-1.1-0.5-1.8-0.7c-0.9-0.4-1.7-0.7-2.3-1.1c-0.7-0.4-1.2-0.8-1.7-1.2s-0.8-1-1-1.5
			c-0.2-0.6-0.3-1.2-0.3-2c0-0.9,0.2-1.8,0.6-2.5s1-1.3,1.7-1.8s1.5-0.9,2.5-1.1s1.9-0.4,2.8-0.4c1.7,0,3.3,0.3,4.6,0.9v3.2
			c-1.5-1-3.2-1.4-5.1-1.4c-0.6,0-1.1,0.1-1.6,0.2c-0.5,0.1-0.9,0.3-1.2,0.6c-0.3,0.2-0.6,0.5-0.8,0.9c-0.2,0.3-0.3,0.7-0.3,1.1
			c0,0.5,0.1,1,0.3,1.3c0.2,0.4,0.5,0.7,0.8,0.9c0.4,0.3,0.8,0.5,1.3,0.7s1.1,0.5,1.8,0.7c0.9,0.3,1.7,0.7,2.4,1s1.3,0.8,1.8,1.2
			s0.9,1,1.1,1.6c0.3,0.6,0.4,1.3,0.4,2.1c0,1-0.2,1.8-0.7,2.6c-0.4,0.7-1,1.3-1.7,1.8s-1.6,0.8-2.5,1.1c-1,0.2-1.9,0.4-3,0.4
			C132.4,58.5,130.6,58.1,129.1,57.3z"/>
		<path class="st3" d="M155.6,58.5c-3,0-5.3-0.9-7.1-2.8c-1.8-1.9-2.6-4.3-2.6-7.4c0-3.4,0.9-6,2.8-7.9s4.3-2.8,7.4-2.8
			c3,0,5.3,0.9,7,2.8c1.7,1.8,2.5,4.4,2.5,7.6c0,3.2-0.9,5.7-2.7,7.7C161.1,57.6,158.7,58.5,155.6,58.5z M155.9,40.3
			c-2.1,0-3.7,0.7-4.9,2.1c-1.2,1.4-1.8,3.3-1.8,5.8c0,2.4,0.6,4.2,1.8,5.6s2.8,2.1,4.9,2.1c2.1,0,3.7-0.7,4.8-2s1.7-3.2,1.7-5.7
			s-0.6-4.4-1.7-5.8S157.9,40.3,155.9,40.3z"/>
		<path class="st3" d="M180.6,31.3c-0.6-0.4-1.3-0.5-2.1-0.5c-2.2,0-3.4,1.4-3.4,4.2v3h4.7v2.7h-4.7V58h-3.2V40.8h-3.4V38h3.4v-3.2
			c0-2.1,0.6-3.8,1.8-5s2.7-1.8,4.5-1.8c1,0,1.8,0.1,2.3,0.4L180.6,31.3L180.6,31.3z"/>
		<path class="st3" d="M192.5,57.9c-0.8,0.4-1.8,0.6-3,0.6c-3.5,0-5.3-2-5.3-5.9V40.8h-3.4V38h3.4v-4.9l3.2-1V38h5v2.7h-5V52
			c0,1.3,0.2,2.3,0.7,2.9c0.5,0.6,1.2,0.9,2.3,0.9c0.8,0,1.5-0.2,2.1-0.7V57.9z"/>
	</g>
</g>
</svg>
